<svg width="562" height="102" viewBox="0 0 562 102" fill="none" xmlns="http://www.w3.org/2000/svg">
<path d="M367.704 57L367.604 59.5H367.104L367.204 57H367.704ZM367.504 62.7001V65.1H367.004V62.7001H367.504Z" fill="#302883" stroke="#302883" stroke-miterlimit="10"/>
<path d="M387.404 59.6C387.204 61.1 386.704 62.3 385.904 63.1C385.104 63.9 384.004 64.5 382.504 64.9C381.904 65.1 381.404 65.1 380.804 65.1C379.604 65.1 378.704 64.8001 378.004 64.2001C377.204 63.5001 376.904 62.6 377.004 61.4C377.104 60 377.404 58.9 377.904 58.1C378.404 57.2 379.204 56.6001 380.304 56.2001C379.304 55.9001 378.904 55.3 378.904 54.4C378.904 54.2 378.904 53.9 379.004 53.6C379.304 52.5 379.704 51.7001 380.404 51.2001C380.904 50.8001 381.904 50.6 383.204 50.3C383.704 50.2 384.104 50.2001 384.504 50.2001C386.504 50.2001 387.404 51 387.304 52.5C387.204 53.4 387.004 54.1 386.604 54.6C386.204 55 385.604 55.4001 384.804 55.7001C385.604 55.9001 386.304 56.3 386.804 56.8C387.304 57.4 387.504 58.1 387.504 58.9C387.504 59.2 387.504 59.4 387.404 59.6ZM386.904 59.5C386.904 59.3 386.904 59.2 386.904 59C386.904 58.1 386.504 57.4 385.804 56.8C385.104 56.3 384.204 56 383.104 56.1C383.104 56.1 383.104 56.1 383.004 56.1C382.604 56.2 382.204 56.2 381.704 56.3C380.304 56.5 379.204 57.1 378.504 58C377.904 58.8 377.504 60 377.304 61.5C377.204 62.5 377.504 63.3 378.104 63.8C378.704 64.3 379.504 64.6 380.504 64.6C381.004 64.6 381.504 64.5 382.104 64.4C383.504 64 384.604 63.5001 385.304 62.7001C386.304 61.9001 386.704 60.9 386.904 59.5ZM386.804 52.5C386.904 51.3 386.104 50.7001 384.604 50.7001C384.204 50.7001 383.804 50.7 383.304 50.8C382.104 51 381.204 51.3 380.804 51.5C380.204 51.9 379.804 52.6 379.604 53.6C379.604 53.8 379.504 54.0001 379.504 54.2001C379.504 55.2001 380.304 55.7001 381.804 55.7001C382.104 55.6001 382.604 55.6 383.204 55.5C384.504 55.2 385.304 54.9 385.804 54.6C386.304 54.3 386.704 53.5 386.804 52.5Z" fill="#302883" stroke="#302883" stroke-miterlimit="10"/>
<path d="M391.704 57L391.604 59.5H391.104L391.204 57H391.704ZM391.604 62.7001V65.1H391.104V62.7001H391.604Z" fill="#302883" stroke="#302883" stroke-miterlimit="10"/>
<path d="M404.004 55.8C404.204 56.1 404.404 56.5 404.404 57C404.404 57.8 404.104 58.7001 403.504 59.7001C402.904 60.6001 402.204 61.5 401.404 62.3C400.704 63 399.704 63.5 398.404 64C397.304 64.4 396.504 64.6 395.804 64.6C395.704 64.6 395.604 64.6 395.604 64.6V64C395.704 64 395.704 64 395.904 64C396.504 64 397.304 63.8 398.304 63.4C399.504 62.9 400.404 62.4 401.004 61.8C401.804 61 402.504 60.3 403.004 59.4C403.604 58.5 403.904 57.6 403.904 57C403.904 56.6 403.804 56.3 403.604 56.1C403.204 55.6 402.704 55.4 402.004 55.4C401.004 55.4 400.004 55.7 398.704 56.4C397.604 57 397.004 57.5 397.004 57.9L396.304 57.5L401.104 51.5L395.004 53.9V53.3L402.104 50.5L402.304 50.9L398.204 56C399.704 55.2 401.004 54.8 402.104 54.8C403.004 54.9 403.604 55.2 404.004 55.8Z" fill="#302883" stroke="#302883" stroke-miterlimit="10"/>
<path d="M418.804 59.2001C418.404 60.8001 417.504 62.2 416.204 63.3C414.904 64.5 413.504 65.1 412.004 65.1C411.204 65.1 410.504 64.9 409.804 64.5C407.604 63.3 406.604 61.1 406.604 57.9C406.604 56.1 407.404 54.3001 409.004 52.7001C410.604 51.1001 412.304 50.3 414.104 50.3C415.104 50.3 416.004 50.6001 416.704 51.2001C418.304 52.6001 419.104 54.3 419.104 56.5C419.204 57.4 419.004 58.2001 418.804 59.2001ZM418.304 59.1C418.504 58.2 418.604 57.4 418.604 56.6C418.604 54.6 417.904 53.0001 416.404 51.7001C415.704 51.1001 415.004 50.9 414.104 50.9C412.504 50.9 410.904 51.7001 409.404 53.2001C407.904 54.7001 407.204 56.3 407.204 58C407.204 60.9 408.204 63 410.204 64.1C410.804 64.5 411.504 64.6 412.204 64.6C413.504 64.6 414.804 64 416.004 62.9C417.104 61.8 417.904 60.5 418.304 59.1Z" fill="#302883" stroke="#302883" stroke-miterlimit="10"/>
<path d="M434.204 61.8C434.104 62.1 434.104 62.2 434.004 62.3V65.1H433.404V62.9C432.804 63.4 431.904 63.9 431.004 64.4C429.904 64.9 429.004 65.2001 428.204 65.2001C427.104 65.2001 426.604 64.6 426.704 63.5C426.804 62.4 427.804 61.5 429.604 60.6C430.904 60 432.204 59.6 433.304 59.4V58.5C433.304 58.2 433.204 57.8 432.904 57.6C432.604 57.3 432.304 57.2001 432.004 57.2001C431.704 57.2001 431.004 57.4001 430.004 57.7001C428.904 58.0001 428.304 58.3 428.304 58.5H427.904C427.904 58.2 428.404 57.9 429.304 57.5C430.104 57.2 431.004 56.9001 431.804 56.7001C431.904 56.7001 432.004 56.7001 432.104 56.7001C432.604 56.7001 433.004 56.9 433.404 57.3C433.804 57.7 434.004 58.1 434.004 58.6V59.5C434.004 59.5 434.004 59.5 434.104 59.6C434.104 59.7 434.204 59.7001 434.204 59.7001L434.104 60V61.9L434.204 61.8ZM433.504 62.1V59.9C432.404 60.1 431.204 60.4 430.104 60.9C428.504 61.6 427.604 62.5 427.404 63.4C427.304 64.2 427.604 64.6 428.404 64.6C429.104 64.6 430.104 64.3001 431.304 63.7001C432.404 63.1001 433.104 62.6 433.504 62.1Z" fill="#302883" stroke="#302883" stroke-miterlimit="10"/>
<path d="M438.204 65.1H437.604V62.4H438.204V65.1Z" fill="#302883" stroke="#302883" stroke-miterlimit="10"/>
<path d="M449.204 65.2001H448.704V60.4C448.704 59.2 448.704 58.5 448.704 58.3C448.604 57.5 448.504 57.2001 448.204 57.2001C447.404 57.3001 446.504 58.3 445.604 60V65.1H445.104V60.5H444.804C444.804 60.4 445.004 60.3 445.104 60C445.104 59.2 445.104 58.7 445.004 58.4C444.904 57.9 444.704 57.7 444.504 57.8C444.104 57.9 443.604 58.3 443.004 59C442.504 59.6 442.104 60.2001 441.904 60.7001V65.1H441.404V61.5H441.104C441.104 61.4 441.204 61.2 441.404 60.8V56.8H441.904V59.8C442.804 58.3 443.604 57.4 444.304 57.1C444.404 57.1 444.504 57 444.604 57C445.204 57 445.504 57.7 445.504 59.1C446.204 57.7 447.104 56.9 447.904 56.6C448.004 56.6 448.104 56.5 448.204 56.5C448.704 56.5 449.004 57 449.104 57.9C449.104 58.2 449.204 59 449.204 60.3V65.2001Z" fill="#302883" stroke="#302883" stroke-miterlimit="10"/>
<path d="M453.704 65.1H453.104V62.4H453.704V65.1Z" fill="#302883" stroke="#302883" stroke-miterlimit="10"/>
<path d="M468.304 61.5C468.104 62 467.804 62.6 467.304 63.3C466.704 64.1 466.004 64.7 465.404 64.9C465.104 65 464.904 65.1 464.604 65.1C464.204 65.1 463.904 64.8 463.704 64.3C463.604 64 463.604 63.6 463.604 62.9V58.5L461.704 59.3V58.7001L463.604 57.9V52.5H464.104V57.7001L466.704 56.5V57.1L464.104 58.3V62.9C464.104 63.5 464.104 63.8 464.104 63.9C464.204 64.3 464.304 64.5 464.604 64.5C464.704 64.5 464.904 64.5 465.104 64.4C465.604 64.2 466.204 63.7 466.804 63C467.204 62.4 467.504 61.9 467.704 61.6H468.304V61.5Z" fill="#302883" stroke="#302883" stroke-miterlimit="10"/>
<path d="M475.204 60.4C474.704 61.7 474.304 62.6001 474.004 63.2001C473.304 64.3001 472.404 64.9 471.304 65.1C471.204 65.1 471.104 65.1 471.004 65.1C470.404 65.1 470.004 64.8 469.604 64.3C469.304 63.8 469.104 63.1 469.104 62.3C469.104 61.8 469.204 61.3 469.304 60.8C469.904 58.4 471.304 57.1 473.504 56.8C474.104 56.7 474.504 56.9 474.904 57.4C475.204 57.9 475.404 58.5001 475.404 59.2001C475.404 59.7001 475.404 60.1 475.204 60.4ZM474.704 60.3C474.804 60 474.904 59.6001 474.904 59.2001C474.904 58.7001 474.804 58.2 474.604 57.9C474.404 57.5 474.004 57.4 473.604 57.4C471.704 57.7 470.404 58.9 469.904 61C469.804 61.5 469.704 62 469.704 62.5C469.704 63.1 469.804 63.6 470.004 64C470.204 64.4 470.504 64.6 471.004 64.6C471.104 64.6 471.204 64.6 471.304 64.6C472.304 64.4 473.104 63.8 473.704 62.8C473.904 62.3 474.304 61.5 474.704 60.3Z" fill="#302883" stroke="#302883" stroke-miterlimit="10"/>
<path d="M484.204 65.1H483.704V50.6H484.204V65.1Z" fill="#302883" stroke="#302883" stroke-miterlimit="10"/>
<path d="M497.404 52.5C497.404 53.8 496.504 55.8 494.804 58.3C493.304 60.4 491.804 62.3 490.004 64C489.904 64.1 489.804 64.1 489.704 64.3L497.304 63.1V63.7001L488.704 65.1L488.504 64.7001C488.804 64.5001 489.104 64.2001 489.604 63.7001C491.204 62.1001 492.804 60.3001 494.304 58.2001C496.004 55.8001 496.804 54 496.804 52.8C496.804 51.8 496.204 51.4 495.004 51.4C492.304 51.5 490.304 52.7 489.004 55H488.404C489.904 52.3 492.104 50.9 495.004 50.9C495.804 50.9 496.304 51 496.804 51.4C497.204 51.5 497.404 52 497.404 52.5Z" fill="#302883" stroke="#302883" stroke-miterlimit="10"/>
<path d="M501.604 57L501.504 59.5H501.004L501.104 57H501.604ZM501.504 62.7001V65.1H501.004V62.7001H501.504Z" fill="#302883" stroke="#302883" stroke-miterlimit="10"/>
<path d="M517.504 59.2001C517.104 60.8001 516.204 62.2 514.904 63.3C513.604 64.5 512.204 65.1 510.704 65.1C509.904 65.1 509.204 64.9 508.504 64.5C506.304 63.3 505.304 61.1 505.304 57.9C505.304 56.1 506.104 54.3001 507.704 52.7001C509.304 51.1001 511.004 50.3 512.804 50.3C513.804 50.3 514.704 50.6001 515.404 51.2001C517.004 52.6001 517.804 54.3 517.804 56.5C517.904 57.4 517.804 58.2001 517.504 59.2001ZM517.004 59.1C517.204 58.2 517.304 57.4 517.304 56.6C517.304 54.6 516.604 53.0001 515.104 51.7001C514.404 51.1001 513.704 50.9 512.804 50.9C511.204 50.9 509.604 51.7001 508.104 53.2001C506.604 54.7001 505.904 56.3 505.904 58C505.904 60.9 506.904 63 508.904 64.1C509.504 64.5 510.204 64.6 510.904 64.6C512.204 64.6 513.504 64 514.704 62.9C515.804 61.8 516.604 60.5 517.004 59.1Z" fill="#302883" stroke="#302883" stroke-miterlimit="10"/>
<path d="M532.104 59.2001C531.704 60.8001 530.804 62.2 529.504 63.3C528.204 64.5 526.804 65.1 525.304 65.1C524.504 65.1 523.804 64.9 523.104 64.5C520.904 63.3 519.904 61.1 519.904 57.9C519.904 56.1 520.704 54.3001 522.304 52.7001C523.904 51.1001 525.604 50.3 527.404 50.3C528.404 50.3 529.304 50.6001 530.004 51.2001C531.604 52.6001 532.404 54.3 532.404 56.5C532.504 57.4 532.304 58.2001 532.104 59.2001ZM531.604 59.1C531.804 58.2 531.904 57.4 531.904 56.6C531.904 54.6 531.204 53.0001 529.704 51.7001C529.004 51.1001 528.304 50.9 527.404 50.9C525.804 50.9 524.204 51.7001 522.704 53.2001C521.204 54.7001 520.504 56.3 520.504 58C520.504 60.9 521.504 63 523.504 64.1C524.104 64.5 524.804 64.6 525.504 64.6C526.804 64.6 528.104 64 529.304 62.9C530.404 61.8 531.204 60.5 531.604 59.1Z" fill="#302883" stroke="#302883" stroke-miterlimit="10"/>
<path d="M548.604 65.2001H548.104V60.4C548.104 59.2 548.104 58.5 548.104 58.3C548.004 57.5 547.904 57.2001 547.604 57.2001C546.804 57.3001 545.904 58.3 545.004 60V65.1H544.504V60.5H544.204C544.204 60.4 544.404 60.3 544.504 60C544.504 59.2 544.504 58.7 544.404 58.4C544.304 57.9 544.104 57.7 543.904 57.8C543.504 57.9 543.004 58.3 542.404 59C541.904 59.6 541.504 60.2001 541.304 60.7001V65.1H540.804V61.5H540.504C540.504 61.4 540.604 61.2 540.804 60.8V56.8H541.304V59.8C542.204 58.3 543.004 57.4 543.704 57.1C543.804 57.1 543.904 57 544.004 57C544.604 57 544.904 57.7 544.904 59.1C545.604 57.7 546.504 56.9 547.304 56.6C547.404 56.6 547.504 56.5 547.604 56.5C548.104 56.5 548.404 57 548.504 57.9C548.504 58.2 548.604 59 548.604 60.3V65.2001Z" fill="#302883" stroke="#302883" stroke-miterlimit="10"/>
<path d="M553.004 65.1H552.404V62.4H553.004V65.1Z" fill="#302883" stroke="#302883" stroke-miterlimit="10"/>
<path d="M298.504 59.3C298.204 61 297.104 62.4 295.304 63.5C294.404 64.1 292.904 64.7 290.904 65.3V64.7001C292.804 64.1001 294.104 63.6 295.004 63.1C296.704 62.1 297.704 60.8001 298.004 59.2001C298.004 59.0001 298.104 58.8 298.104 58.6C298.104 57.4 297.304 56.9 295.604 56.9C295.204 56.9 294.604 56.9 293.804 57C293.004 57.1 292.504 57.1 292.104 57.1C291.004 57.1 290.504 56.8001 290.504 56.2001C290.504 56.0001 290.504 55.8 290.604 55.6C291.104 54.1 291.904 53 293.104 52.1C294.204 51.3 295.504 50.9 296.904 50.9C297.104 50.9 297.204 50.9 297.404 50.9V51.4C297.204 51.4 297.004 51.4 296.904 51.4C295.604 51.4 294.404 51.8 293.404 52.5C292.304 53.3 291.604 54.4001 291.204 55.7001C291.204 55.8001 291.204 55.9 291.204 56C291.204 56.4 291.604 56.5 292.304 56.5C292.604 56.5 293.104 56.5 293.904 56.4C294.704 56.3 295.304 56.3 295.704 56.3C297.704 56.3 298.604 57 298.604 58.4C298.604 58.7 298.504 59 298.504 59.3Z" fill="#302883" stroke="#302883" stroke-miterlimit="10"/>
<path d="M307.304 61.8C307.204 62.1 307.204 62.2 307.104 62.3V65.1H306.504V62.9C305.904 63.4 305.004 63.9 304.104 64.4C303.004 64.9 302.104 65.2001 301.304 65.2001C300.204 65.2001 299.704 64.6 299.804 63.5C299.904 62.4 300.904 61.5 302.704 60.6C304.004 60 305.304 59.6 306.404 59.4V58.5C306.404 58.2 306.304 57.8 306.004 57.6C305.704 57.3 305.404 57.2001 305.104 57.2001C304.804 57.2001 304.104 57.4001 303.104 57.7001C302.004 58.0001 301.404 58.3 301.404 58.5H300.804C300.804 58.2 301.304 57.9 302.204 57.5C303.004 57.2 303.904 56.9001 304.704 56.7001C304.804 56.7001 304.904 56.7001 305.004 56.7001C305.504 56.7001 305.904 56.9 306.304 57.3C306.704 57.7 306.904 58.1 306.904 58.6V59.5C306.904 59.5 306.904 59.5 307.004 59.6C307.004 59.7 307.104 59.7001 307.104 59.7001L307.004 60V61.9L307.304 61.8ZM306.604 62.1V59.9C305.504 60.1 304.304 60.4 303.204 60.9C301.604 61.6 300.704 62.5 300.504 63.4C300.404 64.2 300.704 64.6 301.504 64.6C302.204 64.6 303.204 64.3001 304.404 63.7001C305.504 63.1001 306.204 62.6 306.604 62.1Z" fill="#302883" stroke="#302883" stroke-miterlimit="10"/>
<path d="M314.904 61.5C314.704 62 314.404 62.6 313.904 63.3C313.304 64.1 312.604 64.7 312.004 64.9C311.704 65 311.504 65.1 311.204 65.1C310.804 65.1 310.504 64.8 310.304 64.3C310.204 64 310.204 63.6 310.204 62.9V58.5L308.304 59.3V58.7001L310.204 57.9V52.5H310.704V57.7001L313.304 56.5V57.1L310.704 58.3V62.9C310.704 63.5 310.704 63.8 310.704 63.9C310.804 64.3 310.904 64.5 311.204 64.5C311.304 64.5 311.504 64.5 311.704 64.4C312.204 64.2 312.804 63.7 313.404 63C313.804 62.4 314.104 61.9 314.304 61.6H314.904V61.5Z" fill="#302883" stroke="#302883" stroke-miterlimit="10"/>
<path d="M367.704 37L367.604 39.5H367.104L367.204 37H367.704ZM367.504 42.7001V45.1H367.004V42.7001H367.504Z" fill="#302883" stroke="#302883" stroke-miterlimit="10"/>
<path d="M385.804 30.6C385.304 31.9 384.704 33.4 383.804 35.1C383.004 36.8 382.404 38 382.104 39C381.504 40.6 381.004 42.6 380.504 45H380.004C380.504 42.6 381.004 40.7 381.504 39C381.904 38 382.404 36.8 383.104 35.3C383.904 33.7 384.504 32.4 384.904 31.3L377.004 33.9V33.3L385.304 30.6H385.804Z" fill="#302883" stroke="#302883" stroke-miterlimit="10"/>
<path d="M390.104 37L390.004 39.5H389.504L389.604 37H390.104ZM390.004 42.7001V45.1H389.504V42.7001H390.004Z" fill="#302883" stroke="#302883" stroke-miterlimit="10"/>
<path d="M402.504 35.8C402.704 36.1 402.904 36.5 402.904 37C402.904 37.8 402.604 38.7001 402.004 39.7001C401.404 40.6001 400.704 41.5 399.904 42.3C399.204 43 398.204 43.5 396.904 44C395.804 44.4 395.004 44.6 394.304 44.6C394.204 44.6 394.104 44.6 394.104 44.6V44C394.204 44 394.204 44 394.404 44C395.004 44 395.804 43.8 396.804 43.4C398.004 42.9 398.904 42.4 399.504 41.8C400.304 41 401.004 40.3 401.504 39.4C402.104 38.5 402.404 37.6 402.404 37C402.404 36.6 402.304 36.3 402.104 36.1C401.704 35.6 401.204 35.4 400.504 35.4C399.504 35.4 398.504 35.7 397.204 36.4C396.104 37 395.504 37.5 395.504 37.9L394.804 37.5L399.604 31.5L393.504 33.9V33.3L400.604 30.5L400.804 30.9L396.704 36C398.204 35.2 399.504 34.8 400.604 34.8C401.404 34.9 402.004 35.2 402.504 35.8Z" fill="#302883" stroke="#302883" stroke-miterlimit="10"/>
<path d="M417.204 39.2001C416.804 40.8001 415.904 42.2 414.604 43.3C413.304 44.5 411.904 45.1 410.404 45.1C409.604 45.1 408.904 44.9 408.204 44.5C406.004 43.3 405.004 41.1 405.004 37.9C405.004 36.1 405.804 34.3001 407.404 32.7001C409.004 31.1001 410.704 30.3 412.504 30.3C413.504 30.3 414.404 30.6001 415.104 31.2001C416.704 32.6001 417.504 34.3 417.504 36.5C417.604 37.4 417.404 38.2001 417.204 39.2001ZM416.704 39.1C416.904 38.2 417.004 37.4 417.004 36.6C417.004 34.6 416.304 33.0001 414.804 31.7001C414.104 31.1001 413.404 30.9 412.504 30.9C410.904 30.9 409.304 31.7001 407.804 33.2001C406.304 34.7001 405.604 36.3 405.604 38C405.604 40.9 406.604 43 408.604 44.1C409.204 44.5 409.904 44.6 410.604 44.6C411.904 44.6 413.204 44 414.404 42.9C415.504 41.8 416.304 40.5 416.704 39.1Z" fill="#302883" stroke="#302883" stroke-miterlimit="10"/>
<path d="M432.604 41.8C432.504 42.1 432.504 42.2 432.404 42.3V45.1H431.904V42.9C431.304 43.4 430.404 43.9 429.504 44.4C428.404 44.9 427.504 45.2001 426.704 45.2001C425.604 45.2001 425.104 44.6 425.204 43.5C425.304 42.4 426.304 41.5 428.104 40.6C429.404 40 430.704 39.6 431.804 39.4V38.5C431.804 38.2 431.704 37.8 431.404 37.6C431.104 37.3 430.804 37.2001 430.504 37.2001C430.204 37.2001 429.504 37.4001 428.504 37.7001C427.404 38.0001 426.904 38.3 426.804 38.5H426.204C426.204 38.2 426.704 37.9 427.604 37.5C428.404 37.2 429.304 36.9001 430.104 36.7001C430.204 36.7001 430.304 36.7001 430.404 36.7001C430.904 36.7001 431.304 36.9 431.704 37.3C432.104 37.7 432.304 38.1 432.304 38.6V39.5C432.304 39.5 432.304 39.5 432.404 39.6C432.404 39.7 432.504 39.7001 432.504 39.7001L432.404 40V41.9L432.604 41.8ZM431.904 42.1V39.9C430.804 40.1 429.604 40.4 428.504 40.9C426.904 41.6 426.004 42.5 425.804 43.4C425.704 44.2 426.004 44.6 426.804 44.6C427.504 44.6 428.504 44.3001 429.704 43.7001C430.804 43.1001 431.504 42.6 431.904 42.1Z" fill="#302883" stroke="#302883" stroke-miterlimit="10"/>
<path d="M436.604 45.1H436.004V42.4H436.604V45.1Z" fill="#302883" stroke="#302883" stroke-miterlimit="10"/>
<path d="M447.604 45.2001H447.104V40.4C447.104 39.2 447.104 38.5 447.104 38.3C447.004 37.5 446.904 37.2001 446.604 37.2001C445.804 37.3001 444.904 38.3 444.004 40V45.1H443.504V40.5H443.204C443.204 40.4 443.404 40.3 443.504 40C443.504 39.2 443.504 38.7 443.404 38.4C443.304 37.9 443.104 37.7 442.904 37.8C442.504 37.9 442.004 38.3 441.404 39C440.904 39.6 440.504 40.2001 440.304 40.7001V45.1H439.804V41.5H439.504C439.504 41.4 439.604 41.2 439.804 40.8V36.8H440.304V39.8C441.204 38.3 442.004 37.4 442.704 37.1C442.804 37.1 442.904 37 443.004 37C443.604 37 443.904 37.7 443.904 39.1C444.604 37.7 445.504 36.9 446.304 36.6C446.404 36.6 446.504 36.5 446.604 36.5C447.104 36.5 447.404 37 447.504 37.9C447.504 38.2 447.604 39 447.604 40.3V45.2001Z" fill="#302883" stroke="#302883" stroke-miterlimit="10"/>
<path d="M452.104 45.1H451.504V42.4H452.104V45.1Z" fill="#302883" stroke="#302883" stroke-miterlimit="10"/>
<path d="M466.704 41.5C466.504 42 466.204 42.6 465.704 43.3C465.104 44.1 464.404 44.7 463.804 44.9C463.504 45 463.304 45.1 463.004 45.1C462.604 45.1 462.304 44.8 462.104 44.3C462.004 44 462.004 43.6 462.004 42.9V38.5L460.104 39.3V38.7001L462.004 37.9V32.5H462.504V37.7001L465.104 36.5V37.1L462.504 38.3V42.9C462.504 43.5 462.504 43.8 462.504 43.9C462.604 44.3 462.704 44.5 463.004 44.5C463.104 44.5 463.304 44.5 463.504 44.4C464.004 44.2 464.604 43.7 465.204 43C465.604 42.4 465.904 41.9 466.104 41.6H466.704V41.5Z" fill="#302883" stroke="#302883" stroke-miterlimit="10"/>
<path d="M473.604 40.4C473.104 41.7 472.704 42.6001 472.404 43.2001C471.704 44.3001 470.804 44.9 469.704 45.1C469.604 45.1 469.504 45.1 469.404 45.1C468.804 45.1 468.404 44.8 468.004 44.3C467.704 43.8 467.504 43.1 467.504 42.3C467.504 41.8 467.604 41.3 467.704 40.8C468.304 38.4 469.704 37.1 471.904 36.8C472.504 36.7 472.904 36.9 473.304 37.4C473.604 37.9 473.804 38.5001 473.804 39.2001C473.804 39.7001 473.804 40.1 473.604 40.4ZM473.104 40.3C473.204 40 473.304 39.6001 473.304 39.2001C473.304 38.7001 473.204 38.2 473.004 37.9C472.804 37.5 472.404 37.4 472.004 37.4C470.104 37.7 468.804 38.9 468.304 41C468.204 41.5 468.104 42 468.104 42.5C468.104 43.1 468.204 43.6 468.404 44C468.604 44.4 468.904 44.6 469.404 44.6C469.504 44.6 469.604 44.6 469.704 44.6C470.704 44.4 471.504 43.8 472.104 42.8C472.304 42.3 472.704 41.5 473.104 40.3Z" fill="#302883" stroke="#302883" stroke-miterlimit="10"/>
<path d="M490.004 37.2001C490.104 37.5001 490.104 37.7 490.104 38.1C490.104 39.5 489.504 41 488.204 42.6C486.904 44.3 485.504 45.1 484.204 45.1C483.304 45.1 482.504 44.8001 482.004 44.2001C481.304 43.5001 481.004 42.6 481.004 41.4C481.004 40.3 481.404 39 482.304 37.3C483.204 35.6 484.204 34.2 485.304 33C486.604 31.7 487.804 30.9 488.904 30.8V31.3C487.904 31.4 486.804 32.2 485.604 33.4C484.504 34.6 483.604 35.9 482.804 37.5C482.004 39.1 481.604 40.3 481.604 41.3C481.604 42.3 481.904 43.2 482.404 43.8C482.904 44.4 483.504 44.6 484.304 44.6C485.504 44.6 486.704 43.8 487.904 42.3C489.004 40.8 489.604 39.5 489.604 38.3C489.604 38 489.604 37.7 489.504 37.5C489.204 36.9 488.804 36.6 488.204 36.6C487.504 36.6 486.604 37.0001 485.604 37.7001C484.704 38.3001 483.904 39.1 483.004 40C482.204 40.8 481.804 41.5 481.804 41.8L481.704 41.1C481.804 40.7 482.204 40.1001 483.004 39.2001C483.804 38.4001 484.604 37.6 485.604 37C486.704 36.3 487.604 35.9 488.404 35.9C489.104 36 489.704 36.4001 490.004 37.2001Z" fill="#302883" stroke="#302883" stroke-miterlimit="10"/>
<path d="M495.304 37L495.204 39.5H494.704L494.804 37H495.304ZM495.204 42.7001V45.1H494.704V42.7001H495.204Z" fill="#302883" stroke="#302883" stroke-miterlimit="10"/>
<path d="M511.304 39.2001C510.904 40.8001 510.004 42.2 508.704 43.3C507.404 44.5 506.004 45.1 504.504 45.1C503.704 45.1 503.004 44.9 502.304 44.5C500.104 43.3 499.104 41.1 499.104 37.9C499.104 36.1 499.904 34.3001 501.504 32.7001C503.104 31.1001 504.804 30.3 506.604 30.3C507.604 30.3 508.504 30.6001 509.204 31.2001C510.804 32.6001 511.604 34.3 511.604 36.5C511.604 37.4 511.504 38.2001 511.304 39.2001ZM510.704 39.1C510.904 38.2 511.004 37.4 511.004 36.6C511.004 34.6 510.304 33.0001 508.804 31.7001C508.104 31.1001 507.404 30.9 506.504 30.9C504.904 30.9 503.304 31.7001 501.804 33.2001C500.304 34.7001 499.604 36.3 499.604 38C499.604 40.9 500.604 43 502.604 44.1C503.204 44.5 503.904 44.6 504.604 44.6C505.904 44.6 507.204 44 508.404 42.9C509.604 41.8 510.404 40.5 510.704 39.1Z" fill="#302883" stroke="#302883" stroke-miterlimit="10"/>
<path d="M525.904 39.2001C525.504 40.8001 524.604 42.2 523.304 43.3C522.004 44.5 520.604 45.1 519.104 45.1C518.304 45.1 517.604 44.9 516.904 44.5C514.704 43.3 513.704 41.1 513.704 37.9C513.704 36.1 514.504 34.3001 516.104 32.7001C517.704 31.1001 519.404 30.3 521.204 30.3C522.204 30.3 523.104 30.6001 523.804 31.2001C525.404 32.6001 526.204 34.3 526.204 36.5C526.204 37.4 526.104 38.2001 525.904 39.2001ZM525.304 39.1C525.504 38.2 525.604 37.4 525.604 36.6C525.604 34.6 524.904 33.0001 523.404 31.7001C522.704 31.1001 522.004 30.9 521.104 30.9C519.504 30.9 517.904 31.7001 516.404 33.2001C514.904 34.7001 514.204 36.3 514.204 38C514.204 40.9 515.204 43 517.204 44.1C517.804 44.5 518.504 44.6 519.204 44.6C520.504 44.6 521.804 44 523.004 42.9C524.204 41.8 524.904 40.5 525.304 39.1Z" fill="#302883" stroke="#302883" stroke-miterlimit="10"/>
<path d="M541.004 39.6C541.004 41 540.104 42.4 538.504 43.6C537.504 44.3 536.404 44.9 535.104 45.4V49H534.604V39.7001L534.404 39.3L534.604 39.2001V36.6H535.104V38.9C536.904 37.9 538.304 37.4 539.204 37.4C540.504 37.2 541.104 38 541.004 39.6ZM540.504 39.6C540.504 38.4 540.104 37.8 539.204 37.8C538.404 37.8 537.104 38.4 535.104 39.5V44.7001C536.204 44.3001 537.204 43.8 538.104 43.1C539.704 41.9 540.504 40.8 540.504 39.6Z" fill="#302883" stroke="#302883" stroke-miterlimit="10"/>
<path d="M545.104 45.1H544.504V42.4H545.104V45.1Z" fill="#302883" stroke="#302883" stroke-miterlimit="10"/>
<path d="M556.204 45.2001H555.704V40.4C555.704 39.2 555.704 38.5 555.704 38.3C555.604 37.5 555.504 37.2001 555.204 37.2001C554.404 37.3001 553.504 38.3 552.604 40V45.1H552.104V40.5H551.804C551.804 40.4 552.004 40.3 552.104 40C552.104 39.2 552.104 38.7 552.004 38.4C551.904 37.9 551.704 37.7 551.504 37.8C551.104 37.9 550.604 38.3 550.004 39C549.504 39.6 549.104 40.2001 548.904 40.7001V45.1H548.404V41.5H548.104C548.104 41.4 548.204 41.2 548.404 40.8V36.8H548.904V39.8C549.804 38.3 550.604 37.4 551.304 37.1C551.404 37.1 551.504 37 551.604 37C552.204 37 552.504 37.7 552.504 39.1C553.204 37.7 554.104 36.9 554.904 36.6C555.004 36.6 555.104 36.5 555.204 36.5C555.704 36.5 556.004 37 556.104 37.9C556.104 38.2 556.204 39 556.204 40.3V45.2001Z" fill="#302883" stroke="#302883" stroke-miterlimit="10"/>
<path d="M560.604 45.1H560.004V42.4H560.604V45.1Z" fill="#302883" stroke="#302883" stroke-miterlimit="10"/>
<path d="M302.004 45.1H301.404L299.904 32.4L296.504 45.1H296.104L292.904 32.5L291.304 45.1H290.804L292.604 30.8H293.004L296.204 43.7001L299.704 30.7001H300.204L302.004 45.1Z" fill="#302883" stroke="#302883" stroke-miterlimit="10"/>
<path d="M310.004 40.4C309.504 41.7 309.104 42.6001 308.804 43.2001C308.104 44.3001 307.204 44.9 306.104 45.1C306.004 45.1 305.904 45.1 305.804 45.1C305.204 45.1 304.804 44.8 304.404 44.3C304.104 43.8 303.904 43.1 303.904 42.3C303.904 41.8 304.004 41.3 304.104 40.8C304.704 38.4 306.104 37.1 308.304 36.8C308.904 36.7 309.304 36.9 309.704 37.4C310.004 37.9 310.204 38.5001 310.204 39.2001C310.204 39.7001 310.104 40.1 310.004 40.4ZM309.504 40.3C309.604 40 309.704 39.6001 309.704 39.2001C309.704 38.7001 309.604 38.2 309.404 37.9C309.204 37.5 308.804 37.4 308.404 37.4C306.504 37.7 305.204 38.9 304.704 41C304.604 41.5 304.504 42 304.504 42.5C304.504 43.1 304.604 43.6 304.804 44C305.004 44.4 305.304 44.6 305.804 44.6C305.904 44.6 306.004 44.6 306.104 44.6C307.104 44.4 307.904 43.8 308.504 42.8C308.704 42.3 309.004 41.5 309.504 40.3Z" fill="#302883" stroke="#302883" stroke-miterlimit="10"/>
<path d="M316.704 45.1H316.204V40.7001C316.204 39.7001 316.204 39.0001 316.104 38.7001C316.004 38.0001 315.804 37.6 315.504 37.6C315.404 37.6 315.404 37.6001 315.304 37.7001C314.304 38.1001 313.304 39.2 312.204 41.1V45.1H311.704V41.5H311.404C311.404 41.4 311.504 41.2 311.704 41V36.8H312.204V40.2001C313.404 38.4001 314.404 37.4 315.304 37C315.404 37 315.604 36.9 315.704 36.9C316.204 36.9 316.504 37.4 316.604 38.3C316.704 38.7 316.704 39.5001 316.704 40.7001V45.1Z" fill="#302883" stroke="#302883" stroke-miterlimit="10"/>
<path d="M330.604 37.8L325.604 39.2001V38.7001L330.604 37.3V37.8Z" fill="#302883" stroke="#302883" stroke-miterlimit="10"/>
<path d="M345.204 35.1L339.504 38V45.1H339.004V30.7001H339.504V32.9L344.904 30.3V30.9L339.504 33.5V37.4L345.204 34.5V35.1Z" fill="#302883" stroke="#302883" stroke-miterlimit="10"/>
<path d="M353.104 37.5C352.904 37.4 352.704 37.4 352.504 37.4C351.104 37.4 349.904 38.3 348.904 40.1V45.1H348.404V40.1H348.104C348.204 40 348.204 39.8001 348.404 39.7001V36.8H348.904V38.9C349.904 37.5 351.104 36.8 352.404 36.8C352.604 36.8 352.904 36.8 353.204 36.9V37.5H353.104Z" fill="#302883" stroke="#302883" stroke-miterlimit="10"/>
<path d="M356.404 36.2001H355.904V34.9H356.404V36.2001ZM356.404 37V45.1H355.904V37H356.404Z" fill="#302883" stroke="#302883" stroke-miterlimit="10"/>
<path d="M300.104 25H299.504L297.204 17.7001L293.004 19.9V19.3C295.904 17.9 297.204 17.2001 297.104 17.2001L295.404 11.8L290.804 25.2001H290.204L295.104 10.7001H295.504L297.504 17H297.604L297.804 17.4H297.704L300.104 25Z" fill="#302883" stroke="#302883" stroke-miterlimit="10"/>
<path d="M307.304 21.5C307.104 22 306.804 22.6 306.304 23.3C305.704 24.1 305.004 24.7 304.404 24.9C304.104 25 303.904 25.1 303.604 25.1C303.204 25.1 302.904 24.8 302.704 24.3C302.604 24 302.604 23.6 302.604 22.9V18.5L300.704 19.3V18.7001L302.604 17.9V12.5H303.104V17.7001L305.704 16.5V17.1L303.104 18.3V22.9C303.104 23.5 303.104 23.8 303.104 23.9C303.204 24.3 303.304 24.5 303.604 24.5C303.704 24.5 303.904 24.5 304.104 24.4C304.604 24.2 305.204 23.7 305.804 23C306.204 22.4 306.504 21.9 306.704 21.6H307.304V21.5Z" fill="#302883" stroke="#302883" stroke-miterlimit="10"/>
<path d="M314.604 21.5C314.404 22 314.104 22.6 313.604 23.3C313.004 24.1 312.304 24.7 311.704 24.9C311.404 25 311.204 25.1 310.904 25.1C310.504 25.1 310.204 24.8 310.004 24.3C309.904 24 309.904 23.6 309.904 22.9V18.5L308.004 19.3V18.7001L309.904 17.9V12.5H310.404V17.7001L313.004 16.5V17.1L310.404 18.3V22.9C310.404 23.5 310.404 23.8 310.404 23.9C310.504 24.3 310.604 24.5 310.904 24.5C311.004 24.5 311.204 24.5 311.404 24.4C311.904 24.2 312.504 23.7 313.104 23C313.504 22.4 313.804 21.9 314.004 21.6H314.604V21.5Z" fill="#302883" stroke="#302883" stroke-miterlimit="10"/>
<path d="M322.604 18.3C322.404 18.9 321.804 19.5 320.804 19.9C320.004 20.3 319.304 20.5 318.704 20.5C318.504 20.5 318.404 20.5 318.404 20.4L318.804 19.7001C318.804 19.8001 318.904 19.9 319.104 19.9C319.504 19.9 320.104 19.7 320.704 19.4C321.404 19 321.904 18.6 322.004 18.1C322.104 17.9 322.104 17.8 322.104 17.6C322.104 17.2 321.904 17 321.404 17C320.904 17 320.304 17.2 319.504 17.5C319.004 17.7 318.404 18.2 317.804 18.9C317.104 19.8 316.604 20.8 316.504 21.8C316.504 22 316.404 22.3 316.404 22.5C316.404 23.7 316.904 24.3 317.904 24.3C319.104 24.3 320.304 23.6 321.804 22.1L322.204 22.5C320.704 24.1 319.204 24.9 317.904 24.9C317.304 24.9 316.804 24.7 316.404 24.3C316.004 23.9 315.904 23.3 315.904 22.5C315.904 22.3 315.904 22.0001 316.004 21.7001C316.204 20.5001 316.704 19.5 317.504 18.5C318.204 17.7 318.804 17.2 319.404 16.9C320.104 16.6 320.704 16.5 321.404 16.5C322.304 16.5 322.704 16.8 322.704 17.5C322.804 17.8 322.704 18 322.604 18.3Z" fill="#302883" stroke="#302883" stroke-miterlimit="10"/>
<path d="M330.304 25.1H329.804V20.7001C329.804 19.7001 329.804 19.0001 329.704 18.7001C329.604 18.0001 329.404 17.6 329.104 17.6C329.004 17.6 329.004 17.6001 328.904 17.7001C327.904 18.1001 326.904 19.2 325.804 21.1V25.1H325.304V21.5H325.004C325.004 21.4 325.104 21.2 325.304 21V16.8H325.804V20.2001C327.004 18.4001 328.004 17.4 328.904 17C329.004 17 329.204 16.9 329.304 16.9C329.804 16.9 330.104 17.4 330.204 18.3C330.304 18.7 330.304 19.5001 330.304 20.7001V25.1Z" fill="#302883" stroke="#302883" stroke-miterlimit="10"/>
<path d="M338.604 21.5C338.404 22 338.104 22.6 337.604 23.3C337.004 24.1 336.304 24.7 335.704 24.9C335.404 25 335.204 25.1 334.904 25.1C334.504 25.1 334.204 24.8 334.004 24.3C333.904 24 333.904 23.6 333.904 22.9V18.5L332.004 19.3V18.7001L333.904 17.9V12.5H334.404V17.7001L337.004 16.5V17.1L334.404 18.3V22.9C334.404 23.5 334.404 23.8 334.404 23.9C334.504 24.3 334.604 24.5 334.904 24.5C335.004 24.5 335.204 24.5 335.404 24.4C335.904 24.2 336.504 23.7 337.104 23C337.504 22.4 337.804 21.9 338.004 21.6H338.604V21.5Z" fill="#302883" stroke="#302883" stroke-miterlimit="10"/>
<path d="M341.904 16.1H341.404V14.8H341.904V16.1ZM341.904 17V25.1H341.404V17H341.904Z" fill="#302883" stroke="#302883" stroke-miterlimit="10"/>
<path d="M350.704 20.4C350.204 21.7 349.804 22.6001 349.504 23.2001C348.804 24.3001 347.904 24.9 346.804 25.1C346.704 25.1 346.604 25.1 346.504 25.1C345.904 25.1 345.504 24.8 345.104 24.3C344.804 23.8 344.604 23.1 344.604 22.3C344.604 21.8 344.704 21.3 344.804 20.8C345.404 18.4 346.804 17.1 349.004 16.8C349.604 16.7 350.004 16.9 350.404 17.4C350.704 17.9 350.904 18.5001 350.904 19.2001C350.904 19.6001 350.804 20 350.704 20.4ZM350.204 20.2001C350.304 19.9001 350.404 19.5 350.404 19.1C350.404 18.6 350.304 18.1 350.104 17.8C349.904 17.4 349.504 17.3 349.104 17.3C347.204 17.6 345.904 18.8 345.404 20.9C345.304 21.4 345.204 21.9 345.204 22.4C345.204 23 345.304 23.5 345.504 23.9C345.704 24.3 346.004 24.5 346.504 24.5C346.604 24.5 346.704 24.5 346.804 24.5C347.804 24.3 348.604 23.7001 349.204 22.7001C349.404 22.3001 349.804 21.4001 350.204 20.2001Z" fill="#302883" stroke="#302883" stroke-miterlimit="10"/>
<path d="M357.804 25.1H357.304V20.7001C357.304 19.7001 357.304 19.0001 357.204 18.7001C357.104 18.0001 356.904 17.6 356.604 17.6C356.504 17.6 356.504 17.6001 356.404 17.7001C355.404 18.1001 354.404 19.2 353.304 21.1V25.1H352.904V21.5H352.604C352.604 21.4 352.704 21.2 352.904 21V16.8H353.404V20.2001C354.604 18.4001 355.604 17.4 356.504 17C356.604 17 356.804 16.9 356.904 16.9C357.404 16.9 357.704 17.4 357.804 18.3C357.904 18.7 357.904 19.5001 357.904 20.7001V25.1H357.804Z" fill="#302883" stroke="#302883" stroke-miterlimit="10"/>
<path d="M372.804 21.6C372.404 23.1 370.504 24.3001 367.204 25.2001V24.6C368.604 24.3 369.504 24.0001 370.104 23.7001C371.304 23.1001 372.004 22.4 372.304 21.6C372.404 21.4 372.404 21.2 372.404 21.1C372.404 20.6 372.004 20.3 371.304 20.3C371.004 20.3 370.404 20.4 369.604 20.5C368.804 20.6 368.304 20.7001 368.004 20.7001C367.304 20.7001 367.004 20.5 367.004 20C367.004 19.9 367.004 19.7 367.104 19.5C367.404 18.6 368.004 17.9 369.004 17.4C369.904 16.9 371.004 16.8 372.104 16.8V17.3C371.104 17.2 370.204 17.4001 369.404 17.7001C368.604 18.1001 368.104 18.6 367.704 19.4C367.704 19.5 367.604 19.6001 367.604 19.7001C367.604 19.9001 367.804 20 368.204 20C368.404 20 368.904 19.9 369.704 19.8C370.504 19.7 371.004 19.6 371.404 19.6C372.404 19.6 372.904 20.0001 372.904 20.7001C372.904 21.1001 372.904 21.3 372.804 21.6Z" fill="#302883" stroke="#302883" stroke-miterlimit="10"/>
<path d="M381.204 17.3L380.804 17.7001C380.504 17.5001 380.204 17.4 379.904 17.4C379.104 17.4 378.204 17.9 377.304 18.8C376.404 19.8 375.904 20.8 375.804 21.9C375.804 22.1 375.804 22.2 375.804 22.4C375.804 23.6 376.404 24.3 377.604 24.3C378.704 24.3 379.804 23.8 380.804 22.9L381.204 23.3C380.104 24.4 378.904 24.9 377.604 24.9C376.904 24.9 376.404 24.7 375.904 24.3C375.504 23.9 375.204 23.3 375.204 22.5C375.204 22.3 375.204 22.1 375.204 21.9C375.404 20.7 375.904 19.5 377.004 18.5C378.104 17.5 379.004 17 380.004 17C380.504 17 380.904 17.1 381.204 17.3Z" fill="#302883" stroke="#302883" stroke-miterlimit="10"/>
<path d="M389.204 25.1H388.704V18.9C388.704 18.4 388.704 18.1 388.704 18C388.704 17.7 388.504 17.5 388.304 17.5C388.004 17.5 387.404 17.9 386.604 18.6C385.704 19.5 385.004 20.5 384.304 21.8V25.2001H383.804V21.9H383.604C383.604 21.8 383.704 21.7 383.804 21.5V10.8H384.304V20.5C384.904 19.5 385.504 18.7 386.104 18.1C387.104 17.1 387.904 16.6 388.404 16.6C388.804 16.6 389.004 16.9 389.104 17.4C389.104 17.6 389.204 18.1 389.204 18.8V25.1Z" fill="#302883" stroke="#302883" stroke-miterlimit="10"/>
<path d="M398.304 18.3C398.104 18.9 397.504 19.5 396.504 19.9C395.704 20.3 395.004 20.5 394.404 20.5C394.204 20.5 394.104 20.5 394.104 20.4L394.504 19.7001C394.504 19.8001 394.604 19.9 394.804 19.9C395.204 19.9 395.804 19.7 396.404 19.4C397.104 19 397.604 18.6 397.704 18.1C397.804 17.9 397.804 17.8 397.804 17.6C397.804 17.2 397.604 17 397.104 17C396.604 17 396.004 17.2 395.204 17.5C394.704 17.7 394.104 18.2 393.504 18.9C392.804 19.8 392.304 20.8 392.204 21.8C392.204 22 392.104 22.3 392.104 22.5C392.104 23.7 392.604 24.3 393.604 24.3C394.804 24.3 396.004 23.6 397.504 22.1L397.904 22.5C396.404 24.1 394.904 24.9 393.604 24.9C393.004 24.9 392.504 24.7 392.104 24.3C391.704 23.9 391.604 23.3 391.604 22.5C391.604 22.3 391.604 22.0001 391.704 21.7001C391.904 20.5001 392.404 19.5 393.204 18.5C393.904 17.7 394.504 17.2 395.104 16.9C395.804 16.6 396.404 16.5 397.104 16.5C398.004 16.5 398.404 16.8 398.404 17.5C398.404 17.8 398.404 18 398.304 18.3Z" fill="#302883" stroke="#302883" stroke-miterlimit="10"/>
<path d="M408.004 25H407.504V20.3C407.004 21.6 406.104 22.7 405.004 23.6C404.004 24.5 403.004 24.9 402.204 24.9C401.504 24.9 401.104 24.5 401.004 23.8C401.004 23.5 400.904 23.2 400.904 22.9C400.904 21.2 401.604 19.7 402.904 18.6C404.104 17.6 405.404 17.1 406.904 17.1C407.104 17.1 407.304 17.1 407.504 17.1V10.6H408.004V25ZM407.504 18.6V17.7001C407.304 17.7001 407.104 17.7001 406.904 17.7001C405.504 17.7001 404.304 18.2 403.304 19.1C402.104 20.1 401.604 21.5 401.604 23.1C401.604 23.3 401.604 23.5001 401.604 23.7001C401.604 24.2001 401.904 24.4 402.304 24.4C403.104 24.4 404.104 23.8001 405.304 22.7001C406.504 21.4001 407.304 20 407.504 18.6Z" fill="#302883" stroke="#302883" stroke-miterlimit="10"/>
<path d="M415.804 21.4C415.704 21.5 415.604 21.7 415.504 21.9V25.1H415.004V22.7001C414.104 23.9001 413.304 24.6 412.404 24.9C412.104 25 411.904 25.1 411.604 25.1C411.204 25.1 410.904 24.8 410.704 24.3C410.604 24 410.604 23.6 410.604 22.9V16.7001H411.104V22.9C411.104 23.5 411.104 23.8 411.104 23.9C411.104 24.3 411.304 24.5 411.604 24.5C411.704 24.5 411.904 24.5 412.104 24.4C412.604 24.2 413.104 23.8 413.804 23.1C414.304 22.6 414.704 22.1001 414.904 21.7001V16.7001H415.404V21.4H415.804Z" fill="#302883" stroke="#302883" stroke-miterlimit="10"/>
<path d="M419.104 25H418.604V10.6H419.104V25Z" fill="#302883" stroke="#302883" stroke-miterlimit="10"/>
<path d="M428.904 18.3C428.704 18.9 428.104 19.5 427.104 19.9C426.304 20.3 425.604 20.5 425.004 20.5C424.804 20.5 424.704 20.5 424.704 20.4L425.104 19.7001C425.104 19.8001 425.204 19.9 425.404 19.9C425.804 19.9 426.404 19.7 427.004 19.4C427.704 19 428.204 18.6 428.304 18.1C428.404 17.9 428.404 17.8 428.404 17.6C428.404 17.2 428.204 17 427.704 17C427.204 17 426.604 17.2 425.804 17.5C425.304 17.7 424.704 18.2 424.104 18.9C423.404 19.8 422.904 20.8 422.804 21.8C422.804 22 422.704 22.3 422.704 22.5C422.704 23.7 423.204 24.3 424.204 24.3C425.404 24.3 426.604 23.6 428.104 22.1L428.504 22.5C427.004 24.1 425.504 24.9 424.204 24.9C423.604 24.9 423.104 24.7 422.704 24.3C422.304 23.9 422.204 23.3 422.204 22.5C422.204 22.3 422.204 22.0001 422.304 21.7001C422.504 20.5001 423.004 19.5 423.804 18.5C424.504 17.7 425.104 17.2 425.704 16.9C426.404 16.6 427.004 16.5 427.704 16.5C428.604 16.5 429.004 16.8 429.004 17.5C429.104 17.8 429.004 18 428.904 18.3Z" fill="#302883" stroke="#302883" stroke-miterlimit="10"/>
<path d="M433.504 17L433.404 19.5H432.904L433.004 17H433.504ZM433.404 22.7001V25.1H432.904V22.7001H433.404Z" fill="#302883" stroke="#302883" stroke-miterlimit="10"/>
<path d="M260.504 48C248.504 48 238.704 38.3001 238.604 26.2001C238.604 14.2001 248.304 4.40005 260.404 4.30005C272.404 4.30005 282.204 14 282.304 26.1C282.304 38.2 272.504 48 260.504 48ZM280.104 26.3C280.104 15.4 271.404 6.59998 260.504 6.59998C249.704 6.59998 240.904 15.3 240.804 26.1C240.704 37 249.504 45.8 260.304 45.9C271.204 45.9 280.004 37.2001 280.104 26.3Z" fill="#32E0EC"/>
<path d="M260.604 16.6C261.104 17.6 261.504 18.1001 261.504 18.7001C261.604 20.6001 261.404 22.4 261.604 24.3C261.704 25.2 262.004 26.3 262.604 27C264.604 29.6 266.904 32 268.904 34.5C269.304 35 269.504 36.2 269.304 36.5C268.504 37.4 267.804 36.5 267.304 35.9C265.004 33.2 262.704 30.5 260.404 27.8C260.004 27.4 259.604 26.9 259.604 26.4C259.504 23.8 259.504 21.1 259.604 18.5C259.404 17.9 260.004 17.5 260.604 16.6Z" fill="#32E0EC"/>
<path d="M57.3044 76H56.8044V74.7001H57.3044V76ZM57.3044 76.8V84.9H56.8044V76.8H57.3044Z" fill="#302883" stroke="#302883" stroke-miterlimit="10"/>
<path d="M65.7044 84.9H65.2044V80.5C65.2044 79.5 65.2044 78.8 65.1044 78.5C65.0044 77.8 64.8044 77.4 64.5044 77.4C64.4044 77.4 64.4044 77.4 64.3044 77.5C63.3044 77.9 62.3044 79 61.2044 80.9V84.9H60.7044V81.3H60.4044C60.4044 81.2 60.5044 81 60.7044 80.8V76.6H61.2044V80C62.4044 78.2 63.4044 77.2 64.3044 76.8C64.4044 76.8 64.6044 76.7001 64.7044 76.7001C65.2044 76.7001 65.5044 77.2 65.6044 78.1C65.7044 78.5 65.7044 79.3 65.7044 80.5V84.9Z" fill="#302883" stroke="#302883" stroke-miterlimit="10"/>
<path d="M75.1044 73.2001H74.5044C74.4044 72.5001 74.1044 72.0001 73.8044 71.7001C73.5044 71.4001 73.1044 71.2001 72.6044 71.2001C72.1044 71.2001 71.6044 71.4 71.2044 71.8C70.8044 72.3 70.6044 72.8 70.6044 73.3C70.6044 73.4 70.6044 73.5 70.6044 73.6C70.6044 73.8 70.6044 73.9 70.6044 74V76.3L72.5044 76.2001V76.7001L70.6044 76.8V84.8H70.1044V76.8L68.6044 76.9V76.4L70.1044 76.3V74C70.1044 73.2 70.1044 72.8001 70.1044 72.7001C70.2044 72.3001 70.4044 71.9 70.9044 71.4C71.4044 70.9 71.9044 70.7001 72.6044 70.7001C73.2044 70.7001 73.7044 70.9 74.1044 71.3C74.6044 71.7 75.0044 72.3001 75.1044 73.2001Z" fill="#302883" stroke="#302883" stroke-miterlimit="10"/>
<path d="M82.1044 80.3C81.6044 81.6 81.2044 82.5 80.9044 83.1C80.2044 84.2 79.3044 84.8 78.2044 85C78.1044 85 78.0044 85 77.9044 85C77.3044 85 76.9044 84.7001 76.5044 84.2001C76.2044 83.7001 76.0044 83.0001 76.0044 82.2001C76.0044 81.7001 76.1044 81.2001 76.2044 80.7001C76.8044 78.3001 78.2044 77.0001 80.4044 76.7001C81.0044 76.6001 81.4044 76.8 81.8044 77.3C82.1044 77.8 82.3044 78.4 82.3044 79.1C82.3044 79.5 82.2044 79.9 82.1044 80.3ZM81.6044 80.1C81.7044 79.8 81.8044 79.4 81.8044 79C81.8044 78.5 81.7044 78.0001 81.5044 77.7001C81.3044 77.3001 80.9044 77.2001 80.5044 77.2001C78.6044 77.5001 77.3044 78.7 76.8044 80.8C76.7044 81.3 76.6044 81.8 76.6044 82.3C76.6044 82.9 76.7044 83.4 76.9044 83.8C77.1044 84.2 77.4044 84.4 77.9044 84.4C78.0044 84.4 78.1044 84.4 78.2044 84.4C79.2044 84.2 80.0044 83.6 80.6044 82.6C80.8044 82.1 81.1044 81.3 81.6044 80.1Z" fill="#302883" stroke="#302883" stroke-miterlimit="10"/>
<path d="M95.5044 76C95.5044 76.2 95.6044 76.5001 95.6044 76.7001C95.6044 77.7001 95.2044 78.5001 94.4044 79.2001C93.8044 79.7001 93.2044 80 92.8044 80C92.7044 80 92.7044 80 92.7044 79.9C92.7044 79.3 92.7044 78.7 92.7044 77.9C92.7044 76.9 92.6044 76.5 92.6044 76.5C92.2044 76.3 91.8044 76.2001 91.4044 76.2001C91.0044 76.2001 90.6044 76.3 90.2044 76.5C89.7044 76.7 89.2044 77.2001 88.9044 77.7001C88.5044 78.3001 88.4044 78.9 88.4044 79.4C88.4044 80.1 88.6044 80.6 89.1044 80.9C89.3044 81 89.6044 81.1 89.9044 81.1C90.4044 81.1 91.0044 81.0001 91.6044 80.7001C92.2044 80.4001 92.4044 80.2 92.4044 79.9H92.9044C92.9044 80.2 92.5044 80.5 91.8044 80.9C91.0044 81.4 90.3044 81.6 89.7044 81.6C89.3044 81.6 89.0044 81.5 88.7044 81.3C88.1044 80.9 87.8044 80.3 87.8044 79.4C87.8044 78.7 88.0044 78 88.4044 77.3C88.8044 76.6 89.3044 76.1 89.9044 75.9C90.3044 75.7 90.8044 75.6 91.3044 75.6C91.9044 75.6 92.5044 75.7 93.0044 76L93.2044 76.5C93.1044 76.5 93.0044 76.7 93.0044 77.1C93.0044 77.2 93.0044 77.4 93.0044 77.8C93.0044 78.1 93.0044 78.4001 93.0044 78.7001C93.0044 78.9001 93.0044 79.1 93.0044 79.3C93.2044 79.3 93.5044 79.1 94.0044 78.6C94.6044 78 94.9044 77.3 94.9044 76.5C94.9044 76.3 94.9044 76.1 94.8044 75.9C94.5044 74.4 93.1044 73.7001 90.7044 73.7001C89.2044 73.7001 88.0044 74.3 87.1044 75.4C86.2044 76.6 85.7044 77.9 85.8044 79.5C85.9044 80.7 86.3044 81.6 87.1044 82.4C87.9044 83.2 88.9044 83.6 90.1044 83.6C91.4044 83.6 92.7044 83.1 93.9044 82L94.3044 82.4C92.9044 83.6 91.5044 84.1 90.1044 84.1C88.8044 84.1 87.7044 83.7 86.8044 82.8C85.9044 81.9 85.4044 80.8 85.3044 79.5C85.2044 77.8 85.6044 76.3 86.7044 75C87.7044 73.7 89.1044 73.1 90.7044 73.1C91.9044 73.1 92.9044 73.3001 93.7044 73.7001C94.7044 74.3001 95.3044 75 95.5044 76Z" fill="#302883" stroke="#302883" stroke-miterlimit="10"/>
<path d="M106.104 81.6C106.004 81.9 106.004 82 105.904 82.1V84.9H105.304V82.7001C104.704 83.2001 103.804 83.7001 102.904 84.2001C101.804 84.7001 100.904 85 100.104 85C99.0044 85 98.5044 84.4 98.6044 83.3C98.7044 82.2 99.7044 81.3 101.504 80.4C102.804 79.8 104.104 79.4001 105.204 79.2001V78.3C105.204 78 105.104 77.6 104.804 77.4C104.504 77.1 104.204 77 103.904 77C103.604 77 102.904 77.2 101.904 77.5C100.804 77.8 100.204 78.1 100.204 78.3H99.6044C99.6044 78 100.104 77.7 101.004 77.3C101.804 77 102.704 76.7 103.504 76.5C103.604 76.5 103.704 76.5 103.804 76.5C104.304 76.5 104.704 76.7 105.104 77.1C105.504 77.5 105.704 77.9 105.704 78.4V79.3C105.704 79.3 105.704 79.3 105.804 79.4C105.804 79.5 105.904 79.5 105.904 79.5L105.804 79.8V81.7001L106.104 81.6ZM105.304 81.9V79.7001C104.204 79.9001 103.004 80.2001 101.904 80.7001C100.304 81.4001 99.4044 82.3001 99.2044 83.2001C99.1044 84.0001 99.4044 84.4 100.204 84.4C100.904 84.4 101.904 84.1 103.104 83.5C104.204 83 105.004 82.4 105.304 81.9Z" fill="#302883" stroke="#302883" stroke-miterlimit="10"/>
<path d="M113.804 81.2001C113.704 81.3001 113.604 81.5001 113.504 81.7001V84.9H113.004V82.5C112.104 83.7 111.304 84.4001 110.404 84.7001C110.104 84.8001 109.904 84.9 109.604 84.9C109.204 84.9 108.904 84.6 108.704 84.1C108.604 83.8 108.604 83.4001 108.604 82.7001V76.5H109.104V82.7001C109.104 83.3001 109.104 83.6001 109.104 83.7001C109.104 84.1001 109.304 84.3 109.604 84.3C109.704 84.3 109.904 84.3001 110.104 84.2001C110.604 84.0001 111.104 83.6 111.804 82.9C112.304 82.4 112.704 81.9 112.904 81.5V76.5H113.404V81.2001H113.804Z" fill="#302883" stroke="#302883" stroke-miterlimit="10"/>
<path d="M117.504 84.8H117.004V70.4H117.504V84.8Z" fill="#302883" stroke="#302883" stroke-miterlimit="10"/>
<path d="M128.404 81.6C128.304 81.9 128.304 82 128.204 82.1V84.9H127.604V82.7001C127.004 83.2001 126.104 83.7001 125.204 84.2001C124.104 84.7001 123.204 85 122.404 85C121.304 85 120.804 84.4 120.904 83.3C121.004 82.2 122.004 81.3 123.804 80.4C125.104 79.8 126.404 79.4001 127.504 79.2001V78.3C127.504 78 127.404 77.6 127.104 77.4C126.804 77.1 126.504 77 126.204 77C125.904 77 125.204 77.2 124.204 77.5C123.104 77.8 122.504 78.1 122.504 78.3H121.904C121.904 78 122.404 77.7 123.304 77.3C124.104 77 125.004 76.7 125.804 76.5C125.904 76.5 126.004 76.5 126.104 76.5C126.604 76.5 127.004 76.7 127.404 77.1C127.804 77.5 128.004 77.9 128.004 78.4V79.3C128.004 79.3 128.004 79.3 128.104 79.4C128.104 79.5 128.204 79.5 128.204 79.5L128.104 79.8V81.7001L128.404 81.6ZM127.704 81.9V79.7001C126.604 79.9001 125.404 80.2001 124.304 80.7001C122.704 81.4001 121.804 82.3001 121.604 83.2001C121.504 84.0001 121.804 84.4 122.604 84.4C123.304 84.4 124.304 84.1 125.504 83.5C126.604 83 127.304 82.4 127.704 81.9Z" fill="#302883" stroke="#302883" stroke-miterlimit="10"/>
<path d="M138.004 79.4C138.004 80.8 137.104 82.2 135.504 83.4C134.504 84.1 133.404 84.7001 132.104 85.2001V88.8H131.604V79.5L131.404 79.1L131.604 79V76.4H132.104V78.7001C133.904 77.7001 135.304 77.2001 136.204 77.2001C137.404 77.1001 138.004 77.8 138.004 79.4ZM137.504 79.4C137.504 78.2 137.104 77.6 136.204 77.6C135.404 77.6 134.104 78.2 132.104 79.3V84.5C133.204 84.1 134.204 83.6 135.104 82.9C136.604 81.8 137.404 80.6 137.504 79.4Z" fill="#302883" stroke="#302883" stroke-miterlimit="10"/>
<path d="M145.804 77.3C145.604 77.2 145.404 77.2001 145.204 77.2001C143.804 77.2001 142.604 78.1 141.604 79.9V84.9H141.104V79.9H140.804C140.904 79.8 140.904 79.6 141.104 79.5V76.6H141.604V78.7001C142.604 77.3001 143.804 76.6 145.104 76.6C145.304 76.6 145.604 76.6001 145.904 76.7001V77.3H145.804Z" fill="#302883" stroke="#302883" stroke-miterlimit="10"/>
<path d="M150.004 76H149.504V74.7001H150.004V76ZM150.004 76.8V84.9H149.504V76.8H150.004Z" fill="#302883" stroke="#302883" stroke-miterlimit="10"/>
<path d="M158.404 84.9H157.904V80.5C157.904 79.5 157.904 78.8 157.804 78.5C157.704 77.8 157.504 77.4 157.204 77.4C157.104 77.4 157.104 77.4 157.004 77.5C156.004 77.9 155.004 79 153.904 80.9V84.9H153.404V81.3H153.104C153.104 81.2 153.204 81 153.404 80.8V76.6H153.904V80C155.104 78.2 156.104 77.2 157.004 76.8C157.104 76.8 157.304 76.7001 157.404 76.7001C157.904 76.7001 158.204 77.2 158.304 78.1C158.404 78.5 158.404 79.3 158.404 80.5V84.9Z" fill="#302883" stroke="#302883" stroke-miterlimit="10"/>
<path d="M167.204 81.3C167.004 81.8 166.704 82.4 166.204 83.1C165.604 83.9 164.904 84.5001 164.304 84.7001C164.004 84.8001 163.804 84.9 163.504 84.9C163.104 84.9 162.804 84.6 162.604 84.1C162.504 83.8 162.504 83.4001 162.504 82.7001V78.3L160.604 79.1V78.5L162.504 77.7001V72.3H163.004V77.5L165.604 76.3V76.9L163.004 78.1V82.7001C163.004 83.3001 163.004 83.6001 163.004 83.7001C163.104 84.1001 163.204 84.3 163.504 84.3C163.604 84.3 163.804 84.3001 164.004 84.2001C164.504 84.0001 165.104 83.5 165.704 82.8C166.104 82.2 166.404 81.7 166.604 81.4H167.204V81.3Z" fill="#302883" stroke="#302883" stroke-miterlimit="10"/>
<path d="M171.304 84.9H170.704V82.2001H171.304V84.9Z" fill="#302883" stroke="#302883" stroke-miterlimit="10"/>
<path d="M181.004 77.2001L180.604 77.6C180.304 77.4 180.004 77.3 179.704 77.3C178.904 77.3 178.004 77.8001 177.104 78.7001C176.204 79.6001 175.704 80.7 175.604 81.8C175.604 82 175.604 82.1 175.604 82.3C175.604 83.5 176.204 84.2001 177.404 84.2001C178.504 84.2001 179.604 83.7 180.604 82.8L181.004 83.2001C179.904 84.3001 178.704 84.8 177.404 84.8C176.704 84.8 176.204 84.6001 175.704 84.2001C175.304 83.8001 175.004 83.2 175.004 82.4C175.004 82.2 175.004 82 175.004 81.8C175.204 80.6 175.704 79.4 176.804 78.4C177.804 77.4 178.804 76.9 179.804 76.9C180.304 76.9 180.704 77.0001 181.004 77.2001Z" fill="#302883" stroke="#302883" stroke-miterlimit="10"/>
<path d="M189.704 80.3C189.204 81.6 188.804 82.5 188.504 83.1C187.804 84.2 186.904 84.8 185.804 85C185.704 85 185.604 85 185.504 85C184.904 85 184.504 84.7001 184.104 84.2001C183.804 83.7001 183.604 83.0001 183.604 82.2001C183.604 81.7001 183.704 81.2001 183.804 80.7001C184.404 78.3001 185.804 77.0001 188.004 76.7001C188.604 76.6001 189.004 76.8 189.404 77.3C189.704 77.8 189.904 78.4 189.904 79.1C189.904 79.5 189.904 79.9 189.704 80.3ZM189.204 80.1C189.304 79.8 189.404 79.4 189.404 79C189.404 78.5 189.304 78.0001 189.104 77.7001C188.904 77.3001 188.504 77.2001 188.104 77.2001C186.204 77.5001 184.904 78.7 184.404 80.8C184.304 81.3 184.204 81.8 184.204 82.3C184.204 82.9 184.304 83.4 184.504 83.8C184.704 84.2 185.004 84.4 185.504 84.4C185.604 84.4 185.704 84.4 185.804 84.4C186.804 84.2 187.604 83.6 188.204 82.6C188.404 82.1 188.804 81.3 189.204 80.1Z" fill="#302883" stroke="#302883" stroke-miterlimit="10"/>
<path d="M200.404 85H199.904V80.2001C199.904 79.0001 199.904 78.3 199.904 78.1C199.804 77.3 199.704 77 199.404 77C198.604 77.1 197.704 78.1 196.804 79.8V84.9H196.304V80.3H195.904C195.904 80.2 196.104 80.1 196.204 79.8C196.204 79 196.204 78.5001 196.104 78.2001C196.004 77.7001 195.804 77.5 195.604 77.6C195.204 77.7 194.704 78.1 194.104 78.8C193.604 79.4 193.204 80 193.004 80.5V84.9H192.504V81.3H192.204C192.204 81.2 192.304 81 192.504 80.6V76.6H193.004V79.6C193.904 78.1 194.704 77.2 195.404 76.9C195.504 76.9 195.604 76.8 195.704 76.8C196.304 76.8 196.604 77.5 196.604 78.9C197.304 77.5 198.204 76.7 199.004 76.4C199.104 76.4 199.204 76.3 199.304 76.3C199.804 76.3 200.104 76.8001 200.204 77.7001C200.204 78.0001 200.304 78.8 200.304 80.1V85H200.404Z" fill="#302883" stroke="#302883" stroke-miterlimit="10"/>
<path d="M24.2044 56.7001C36.6044 56.7001 46.5044 66.7 46.5044 79.1C46.5044 91.4 36.5044 101.4 24.1044 101.3C11.8044 101.3 1.80443 91.2 1.90443 78.9C1.90443 66.6 11.9044 56.6001 24.2044 56.7001ZM35.2044 75.5C33.0044 76.6 31.0044 77.4 29.2044 78.5C25.9044 80.5 22.7044 80.3001 19.4044 78.3001C17.7044 77.2001 15.7044 76.5 13.7044 75.5C13.7044 79.2 13.7044 82.6 13.7044 86C13.7044 87.3 14.5045 87.9 15.8045 87.9C21.5045 87.9 27.3044 87.9 33.0044 87.9C34.4044 87.9 35.1044 87.2 35.2044 85.9C35.2044 82.5 35.2044 79.2 35.2044 75.5ZM24.5044 70C24.2044 70 23.8044 70 23.5044 70C20.9044 70 18.3044 69.9 15.7044 70.1C15.0044 70.1 14.3045 71 13.8045 71.6C13.6045 71.8 14.1044 72.8 14.5044 73C17.3044 74.5 20.1044 76.0001 22.9044 77.2001C23.8044 77.6001 25.1044 77.6001 25.9044 77.2001C28.8044 76.0001 31.6044 74.5 34.4044 73C34.8044 72.8 35.1044 71.9 35.0044 71.4C34.9044 70.2 33.9044 70 32.9044 70C30.1044 70 27.3044 70 24.5044 70Z" fill="#32E0EC"/>
<path d="M60.6044 28.8L60.2044 29.2001C58.6044 28.1001 57.5044 27.1 56.7044 26C55.8044 24.8 55.4045 23.4 55.3045 21.9C55.2045 20.3 55.6045 18.9 56.3045 17.6C56.9045 16.6 58.0044 15.4 59.5044 14L59.8045 14.5C58.4045 15.8 57.4045 16.9 56.8045 17.8C56.1045 19 55.8045 20.3 55.8045 21.8C55.9045 23.3 56.3044 24.6001 57.2044 25.7001C57.9044 26.7001 59.1044 27.7 60.6044 28.8Z" fill="#302883" stroke="#302883" stroke-miterlimit="10"/>
<path d="M75.0044 14.6C74.5044 15.9 73.9044 17.4 73.0044 19.1C72.1044 20.8 71.6044 22 71.3044 23C70.7044 24.6 70.2044 26.6 69.7044 29H69.2044C69.7044 26.6 70.2044 24.7 70.7044 23C71.1044 22 71.6044 20.8 72.3044 19.3C73.1044 17.7 73.7044 16.4 74.1044 15.3L66.2044 17.9V17.3L74.5044 14.6H75.0044Z" fill="#302883" stroke="#302883" stroke-miterlimit="10"/>
<path d="M86.6044 20.9C86.6044 21 86.7044 21.1001 86.7044 21.2001C86.7044 21.9001 86.2044 22.8 85.3044 24C84.4044 25.3 83.3044 26.4 82.1044 27.3C80.7044 28.4 79.4044 28.9 78.3044 29V28.5C79.3044 28.4 80.5044 27.9 81.8044 26.9C82.9044 26 83.9044 25 84.8044 23.8C85.7044 22.7 86.1044 21.8001 86.1044 21.2001C86.1044 20.9001 86.0044 20.6 85.7044 20.5C85.4044 20.4 85.1044 20.2001 84.8044 20.2001C83.9044 20.2001 82.7044 20.6 81.1044 21.5C79.7044 22.3 78.9044 22.8 78.8044 23.1H78.4044L78.5044 17.3L85.3044 14.5V15.1L79.1044 17.6L79.0044 22.3C79.8044 21.7 80.7044 21.2001 81.7044 20.7001C83.0044 20.1001 84.1044 19.7001 85.0044 19.7001C85.8044 19.8001 86.4044 20.2 86.6044 20.9Z" fill="#302883" stroke="#302883" stroke-miterlimit="10"/>
<path d="M98.7044 21L96.8044 21.6V29.2001H96.3044V21.7001L89.7044 23.9L89.5044 23.5L96.4044 14.3L96.7044 14.5V20.9L98.6044 20.3L98.7044 21ZM96.3044 21.3V15.6L90.6044 23.2001L96.3044 21.3Z" fill="#302883" stroke="#302883" stroke-miterlimit="10"/>
<path d="M106.804 21.9C106.704 23.5 106.304 24.8 105.404 26C104.704 27 103.504 28.1001 101.904 29.2001L101.504 28.8C103.104 27.7 104.204 26.7 104.904 25.8C105.704 24.7 106.204 23.4 106.304 21.9C106.404 20.4 106.004 19.1 105.304 17.9C104.704 16.9 103.704 15.8 102.304 14.5L102.704 14.1C104.204 15.4 105.204 16.6 105.804 17.6C106.504 18.9 106.804 20.3 106.804 21.9Z" fill="#302883" stroke="#302883" stroke-miterlimit="10"/>
<path d="M127.104 19.8C127.304 20.1 127.504 20.5 127.504 21C127.504 21.8 127.204 22.7001 126.604 23.7001C126.004 24.6001 125.304 25.5 124.504 26.3C123.804 27 122.804 27.5 121.504 28C120.404 28.4 119.604 28.6 118.904 28.6C118.804 28.6 118.704 28.6 118.704 28.6V28C118.804 28 118.804 28 119.004 28C119.604 28 120.404 27.8 121.404 27.4C122.604 26.9 123.504 26.4 124.104 25.8C124.904 25 125.604 24.3 126.104 23.4C126.704 22.5 127.004 21.6 127.004 21C127.004 20.6 126.904 20.3 126.704 20.1C126.304 19.6 125.804 19.4 125.104 19.4C124.104 19.4 123.104 19.7 121.804 20.4C120.704 21 120.104 21.5 120.104 21.9L119.404 21.5L124.204 15.5L118.104 17.9V17.3L125.204 14.5L125.404 14.9L121.304 20C122.804 19.2 124.104 18.8 125.204 18.8C126.104 18.9 126.704 19.2 127.104 19.8Z" fill="#302883" stroke="#302883" stroke-miterlimit="10"/>
<path d="M141.904 23.2001C141.504 24.8001 140.604 26.2 139.304 27.3C138.004 28.5 136.604 29.1 135.104 29.1C134.304 29.1 133.604 28.9 132.904 28.5C130.704 27.3 129.704 25.1 129.704 21.9C129.704 20.1 130.504 18.3001 132.104 16.7001C133.704 15.1001 135.404 14.3 137.204 14.3C138.204 14.3 139.104 14.6001 139.804 15.2001C141.404 16.6001 142.204 18.3 142.204 20.5C142.204 21.4 142.104 22.2001 141.904 23.2001ZM141.304 23C141.504 22.1 141.604 21.3 141.604 20.5C141.604 18.5 140.904 16.9 139.404 15.6C138.704 15 138.004 14.8 137.104 14.8C135.504 14.8 133.904 15.6 132.404 17.1C130.904 18.6 130.204 20.2 130.204 21.9C130.204 24.8 131.204 26.9 133.204 28C133.804 28.4 134.504 28.5 135.204 28.5C136.504 28.5 137.804 27.9 139.004 26.8C140.204 25.8 141.004 24.5 141.304 23Z" fill="#302883" stroke="#302883" stroke-miterlimit="10"/>
<path d="M153.204 21L151.304 21.6V29.2001H150.904V21.7001L144.304 23.9L144.104 23.5L151.004 14.3L151.304 14.5V20.9L153.204 20.3V21ZM150.904 21.3V15.6L145.204 23.2001L150.904 21.3Z" fill="#302883" stroke="#302883" stroke-miterlimit="10"/>
<path d="M161.304 21.8L156.304 23.2001V22.7001L161.304 21.3V21.8Z" fill="#302883" stroke="#302883" stroke-miterlimit="10"/>
<path d="M172.704 21L170.804 21.6V29.2001H170.304V21.7001L163.704 23.9L163.504 23.5L170.404 14.3L170.704 14.5V20.9L172.604 20.3L172.704 21ZM170.304 21.3V15.6L164.604 23.2001L170.304 21.3Z" fill="#302883" stroke="#302883" stroke-miterlimit="10"/>
<path d="M185.004 23.5C184.804 25 184.304 26.2 183.504 27C182.704 27.8 181.604 28.4 180.104 28.8C179.504 29 179.004 29 178.404 29C177.204 29 176.304 28.7 175.604 28.1C174.804 27.4 174.504 26.5 174.604 25.3C174.704 23.9 175.004 22.8 175.504 22C176.004 21.1 176.804 20.5 177.904 20.1C176.904 19.8 176.504 19.2 176.504 18.3C176.504 18.1 176.504 17.8 176.604 17.5C176.904 16.4 177.304 15.6 178.004 15.1C178.504 14.7 179.504 14.5001 180.804 14.2001C181.304 14.1001 181.704 14.1 182.104 14.1C184.104 14.1 185.004 14.9 184.904 16.4C184.804 17.3 184.604 18 184.204 18.5C183.804 18.9 183.204 19.3 182.404 19.6C183.204 19.8 183.904 20.2001 184.404 20.7001C184.904 21.3001 185.104 22 185.104 22.8C185.104 23.2 185.104 23.4 185.004 23.5ZM184.504 23.5C184.504 23.3 184.504 23.2 184.504 23C184.504 22.1 184.104 21.4 183.404 20.8C182.704 20.3 181.804 20 180.704 20.1C180.704 20.1 180.704 20.1 180.604 20.1C180.204 20.2 179.804 20.2 179.304 20.3C177.904 20.5 176.804 21.1 176.104 22C175.504 22.8 175.104 24 174.904 25.5C174.804 26.5 175.104 27.3 175.704 27.8C176.304 28.3 177.104 28.6 178.104 28.6C178.604 28.6 179.104 28.5 179.704 28.4C181.104 28 182.204 27.5001 182.904 26.7001C183.904 25.9001 184.304 24.9 184.504 23.5ZM184.404 16.5C184.504 15.3 183.704 14.7001 182.204 14.7001C181.804 14.7001 181.404 14.7 180.904 14.8C179.704 15 178.804 15.3 178.404 15.5C177.804 15.9 177.404 16.6 177.204 17.6C177.204 17.8 177.104 18.0001 177.104 18.2001C177.104 19.2001 177.904 19.7001 179.404 19.7001C179.704 19.6001 180.204 19.6 180.804 19.5C182.104 19.2 182.904 18.9 183.404 18.6C183.904 18.3 184.304 17.5 184.404 16.5Z" fill="#302883" stroke="#302883" stroke-miterlimit="10"/>
<path d="M195.904 14.6C195.404 15.9 194.804 17.4 193.904 19.1C193.004 20.8 192.504 22 192.204 23C191.604 24.6 191.104 26.6 190.604 29H190.104C190.604 26.6 191.104 24.7 191.604 23C192.004 22 192.504 20.8 193.204 19.3C194.004 17.7 194.604 16.4 195.004 15.3L187.104 17.9V17.3L195.404 14.6H195.904Z" fill="#302883" stroke="#302883" stroke-miterlimit="10"/>
<path d="M210.504 23.2001C210.104 24.8001 209.204 26.2 207.904 27.3C206.604 28.5 205.204 29.1 203.704 29.1C202.904 29.1 202.204 28.9 201.504 28.5C199.304 27.3 198.304 25.1 198.304 21.9C198.304 20.1 199.104 18.3001 200.704 16.7001C202.304 15.1001 204.004 14.3 205.804 14.3C206.804 14.3 207.704 14.6001 208.404 15.2001C210.004 16.6001 210.804 18.3 210.804 20.5C210.804 21.4 210.704 22.2001 210.504 23.2001ZM209.904 23C210.104 22.1 210.204 21.3 210.204 20.5C210.204 18.5 209.504 16.9 208.004 15.6C207.304 15 206.604 14.8 205.704 14.8C204.104 14.8 202.504 15.6 201.004 17.1C199.504 18.6 198.804 20.2 198.804 21.9C198.804 24.8 199.804 26.9 201.804 28C202.404 28.4 203.104 28.5 203.804 28.5C205.104 28.5 206.404 27.9 207.604 26.8C208.804 25.8 209.604 24.5 209.904 23Z" fill="#302883" stroke="#302883" stroke-miterlimit="10"/>
<path d="M45.5044 23.2001C45.5044 35.5001 35.5044 45.5 23.1044 45.5C10.8044 45.5 0.80443 35.4 0.90443 23.1C0.90443 10.9 10.9044 0.900028 23.2044 0.900028C35.5044 0.800028 45.5044 10.9001 45.5044 23.2001ZM10.5044 35.8001C11.8044 35.5001 12.8045 35.3 13.8045 35C15.9045 34.3 17.9044 34 20.1044 35C21.2044 35.5 22.6044 35.6 23.9044 35.6C31.9044 35.5 37.7044 28.8 37.0044 20.6C36.3044 13.2 29.0045 7.90005 21.3045 9.30005C13.9045 10.6001 8.80442 18.4001 11.2044 25.8001C12.2044 28.7001 11.9044 31.2 11.0044 33.9C10.9044 34.3 10.8044 34.9001 10.5044 35.8001Z" fill="#32E0EC"/>
<path d="M13.5044 32.5999C15.0044 29.9999 14.2045 27.8 13.3045 25.4C11.6045 20.5 13.9044 15.1999 18.5044 12.5999C22.9044 10.0999 28.6044 11.1 32.0044 14.9C35.4044 18.8 35.7045 24.4999 32.8045 28.5999C29.7045 32.8999 24.2044 34.5 19.5044 32.3C18.1044 31.6 16.9044 31.5999 15.5044 32.0999C15.0044 32.3999 14.5044 32.3999 13.5044 32.5999ZM27.1045 29C28.2045 28.5 29.1045 28.2 29.8045 27.7C31.0045 26.8 30.8044 25.5 29.5044 24.8C28.2044 24.1 27.2044 23.4999 26.0044 25.0999C25.1044 26.1999 23.9044 24.9 23.2044 24.2C22.2044 23.3 21.6044 22 20.9044 20.8C22.4044 19.5 21.4045 18.2 20.8045 17C20.3045 15.7 19.1044 15.5999 18.2044 16.5999C17.0044 17.8999 16.8044 19.6 17.7044 21C18.9044 22.8 20.3044 24.6999 22.0044 26.0999C23.4044 27.5999 25.4045 28.2 27.1045 29Z" fill="#32E0EC"/>
</svg>
