<svg width="722" height="20" viewBox="0 0 722 20" fill="none" xmlns="http://www.w3.org/2000/svg">
<path d="M9.60443 6.70007L7.20441 15.4H6.80441L5.30441 8.30005L3.50443 15.3H3.10443L0.704407 6.80005H1.30441L3.30441 14L5.10443 6.90002H5.60443L7.10443 14L9.10443 6.70007H9.60443Z" fill="white" stroke="white" stroke-miterlimit="10"/>
<path d="M19.8044 6.70007L17.4044 15.4H17.0044L15.5044 8.30005L13.7044 15.3H13.3044L10.9044 6.80005H11.5044L13.5044 14L15.3044 6.90002H15.8044L17.3044 14L19.3044 6.70007H19.8044Z" fill="white" stroke="white" stroke-miterlimit="10"/>
<path d="M30.1044 6.70007L27.7044 15.4H27.3044L25.8044 8.30005L24.0044 15.3H23.6044L21.2044 6.80005H21.8044L23.8044 14L25.6044 6.90002H26.1044L27.6044 14L29.6044 6.70007H30.1044Z" fill="white" stroke="white" stroke-miterlimit="10"/>
<path d="M34.3044 15.4H33.7044V12.7001H34.3044V15.4Z" fill="white" stroke="white" stroke-miterlimit="10"/>
<path d="M44.2044 12.1C44.1044 12.4 44.1044 12.5 44.0044 12.6V15.4H43.4044V13.2001C42.8044 13.7001 41.9044 14.2001 41.0044 14.7001C39.9044 15.2001 39.0044 15.5 38.2044 15.5C37.1044 15.5 36.6044 14.9 36.7044 13.8C36.8044 12.7 37.8044 11.8 39.6044 10.9C40.9044 10.3 42.2044 9.90007 43.3044 9.70007V8.80005C43.3044 8.50005 43.2044 8.10002 42.9044 7.90002C42.6044 7.60002 42.3044 7.5 42.0044 7.5C41.7044 7.5 41.0044 7.7 40.0044 8C38.9044 8.3 38.3044 8.60005 38.3044 8.80005H37.9044C37.9044 8.50005 38.4044 8.20005 39.3044 7.80005C40.1044 7.50005 41.0044 7.2 41.8044 7C41.9044 7 42.0044 7 42.1044 7C42.6044 7 43.0044 7.19998 43.4044 7.59998C43.8044 7.99998 44.0044 8.40002 44.0044 8.90002V9.80005C44.0044 9.80005 44.0044 9.80002 44.1044 9.90002C44.1044 10 44.2044 10 44.2044 10L44.1044 10.3V12.2001L44.2044 12.1ZM43.5044 12.4V10.2001C42.4044 10.4001 41.2044 10.7001 40.1044 11.2001C38.5044 11.9001 37.6044 12.8001 37.4044 13.7001C37.3044 14.5001 37.6044 14.9 38.4044 14.9C39.1044 14.9 40.1044 14.6 41.3044 14C42.4044 13.4 43.1044 12.9 43.5044 12.4Z" fill="white" stroke="white" stroke-miterlimit="10"/>
<path d="M51.0045 11.7001C50.9045 11.8001 50.8044 12.0001 50.7044 12.2001V15.4H50.2044V13C49.3044 14.2 48.5045 14.9001 47.6045 15.2001C47.3045 15.3001 47.1044 15.4 46.8044 15.4C46.4044 15.4 46.1044 15.1 45.9044 14.6C45.8044 14.3 45.8044 13.9001 45.8044 13.2001V7H46.3044V13.2001C46.3044 13.8001 46.3044 14.1001 46.3044 14.2001C46.3044 14.6001 46.5044 14.8 46.8044 14.8C46.9044 14.8 47.1044 14.8001 47.3044 14.7001C47.8044 14.5001 48.3045 14.1 49.0045 13.4C49.5045 12.9 49.9045 12.4 50.1045 12V7H50.6045V11.7001H51.0045Z" fill="white" stroke="white" stroke-miterlimit="10"/>
<path d="M53.9044 15.3H53.4044V0.900024H53.9044V15.3Z" fill="white" stroke="white" stroke-miterlimit="10"/>
<path d="M63.9044 12.1C63.8044 12.4 63.8044 12.5 63.7044 12.6V15.4H63.1044V13.2001C62.5044 13.7001 61.6044 14.2001 60.7044 14.7001C59.6044 15.2001 58.7044 15.5 57.9044 15.5C56.8044 15.5 56.3044 14.9 56.4044 13.8C56.5044 12.7 57.5044 11.8 59.3044 10.9C60.6044 10.3 61.9044 9.90007 63.0044 9.70007V8.80005C63.0044 8.50005 62.9044 8.10002 62.6044 7.90002C62.3044 7.60002 62.0044 7.5 61.7044 7.5C61.4044 7.5 60.7044 7.7 59.7044 8C58.6044 8.3 58.0044 8.60005 58.0044 8.80005H57.4044C57.4044 8.50005 57.9044 8.20005 58.8044 7.80005C59.6044 7.50005 60.5044 7.2 61.3044 7C61.4044 7 61.5044 7 61.6044 7C62.1044 7 62.5044 7.19998 62.9044 7.59998C63.3044 7.99998 63.5044 8.40002 63.5044 8.90002V9.80005C63.5044 9.80005 63.5044 9.80002 63.6044 9.90002C63.6044 10 63.7044 10 63.7044 10L63.6044 10.3V12.2001L63.9044 12.1ZM63.1044 12.4V10.2001C62.0044 10.4001 60.8044 10.7001 59.7044 11.2001C58.1044 11.9001 57.2044 12.8001 57.0044 13.7001C56.9044 14.5001 57.2044 14.9 58.0044 14.9C58.7044 14.9 59.7044 14.6 60.9044 14C62.0044 13.4 62.8044 12.9 63.1044 12.4Z" fill="white" stroke="white" stroke-miterlimit="10"/>
<path d="M72.5044 9.90002C72.5044 11.3 71.6044 12.7 70.0044 13.9C69.0044 14.6 67.9044 15.2001 66.6044 15.7001V19.3H66.1044V10L65.9044 9.59998L66.1044 9.5V6.90002H66.6044V9.20007C68.4044 8.20007 69.8044 7.70007 70.7044 7.70007C72.0044 7.50007 72.6044 8.30002 72.5044 9.90002ZM72.0044 9.90002C72.0044 8.70002 71.6044 8.09998 70.7044 8.09998C69.9044 8.09998 68.6044 8.70005 66.6044 9.80005V15C67.7044 14.6 68.7044 14.1 69.6044 13.4C71.2044 12.2 72.0044 11.1 72.0044 9.90002Z" fill="white" stroke="white" stroke-miterlimit="10"/>
<path d="M79.4044 7.80005C79.2044 7.70005 79.0044 7.70007 78.8044 7.70007C77.4044 7.70007 76.2044 8.60002 75.2044 10.4V15.4H74.7044V10.4H74.4044C74.5044 10.3 74.5044 10.1 74.7044 10V7.09998H75.2044V9.20007C76.2044 7.80007 77.4044 7.09998 78.7044 7.09998C78.9044 7.09998 79.2044 7.10007 79.5044 7.20007V7.80005H79.4044Z" fill="white" stroke="white" stroke-miterlimit="10"/>
<path d="M82.7044 6.5H82.2044V5.20007H82.7044V6.5ZM82.7044 7.30005V15.4H82.2044V7.30005H82.7044Z" fill="white" stroke="white" stroke-miterlimit="10"/>
<path d="M90.2044 15.4H89.7044V11C89.7044 10 89.7044 9.3 89.6044 9C89.5044 8.3 89.3044 7.90002 89.0044 7.90002C88.9044 7.90002 88.9044 7.9 88.8044 8C87.8044 8.4 86.8044 9.50002 85.7044 11.4V15.4H85.2044V11.8H84.9044C84.9044 11.7 85.0044 11.5 85.2044 11.3V7.09998H85.7044V10.5C86.9044 8.7 87.9044 7.70005 88.8044 7.30005C88.9044 7.30005 89.1044 7.20007 89.2044 7.20007C89.7044 7.20007 90.0044 7.69998 90.1044 8.59998C90.2044 8.99998 90.2044 9.8 90.2044 11V15.4Z" fill="white" stroke="white" stroke-miterlimit="10"/>
<path d="M98.1044 11.8C97.9044 12.3 97.6044 12.9 97.1044 13.6C96.5044 14.4 95.8044 15.0001 95.2044 15.2001C94.9044 15.3001 94.7044 15.4 94.4044 15.4C94.0044 15.4 93.7044 15.1 93.5044 14.6C93.4044 14.3 93.4044 13.9001 93.4044 13.2001V8.80005L91.5044 9.59998V9L93.4044 8.20007V2.80005H93.9044V8L96.5044 6.80005V7.40002L93.9044 8.59998V13.2001C93.9044 13.8001 93.9044 14.1001 93.9044 14.2001C94.0044 14.6001 94.1044 14.8 94.4044 14.8C94.5044 14.8 94.7044 14.8001 94.9044 14.7001C95.4044 14.5001 96.0044 14 96.6044 13.3C97.0044 12.7 97.3044 12.2 97.5044 11.9H98.1044V11.8Z" fill="white" stroke="white" stroke-miterlimit="10"/>
<path d="M101.404 15.4H100.804V12.7001H101.404V15.4Z" fill="white" stroke="white" stroke-miterlimit="10"/>
<path d="M110.204 7.70009L109.804 8.09999C109.504 7.89999 109.204 7.80007 108.904 7.80007C108.104 7.80007 107.204 8.30009 106.304 9.20009C105.404 10.1001 104.904 11.2001 104.804 12.3001C104.804 12.5001 104.804 12.6001 104.804 12.8001C104.804 14.0001 105.404 14.7001 106.604 14.7001C107.704 14.7001 108.804 14.2001 109.804 13.3001L110.204 13.7001C109.104 14.8001 107.904 15.3001 106.604 15.3001C105.904 15.3001 105.404 15.1001 104.904 14.7001C104.504 14.3001 104.204 13.7 104.204 12.9C104.204 12.7 104.204 12.5001 104.204 12.3001C104.404 11.1001 104.904 9.90004 106.004 8.90004C107.004 7.90004 108.004 7.40004 109.004 7.40004C109.504 7.30004 109.904 7.40009 110.204 7.70009Z" fill="white" stroke="white" stroke-miterlimit="10"/>
<path d="M118.004 10.7C117.504 12 117.104 12.9 116.804 13.5C116.104 14.6 115.204 15.2 114.104 15.4C114.004 15.4 113.904 15.4 113.804 15.4C113.204 15.4 112.804 15.0999 112.404 14.5999C112.104 14.0999 111.904 13.3999 111.904 12.5999C111.904 12.0999 112.004 11.5999 112.104 11.0999C112.704 8.69994 114.104 7.39994 116.304 7.09994C116.904 6.99994 117.304 7.20004 117.704 7.70004C118.004 8.20004 118.204 8.79997 118.204 9.49997C118.204 9.99997 118.104 10.4 118.004 10.7ZM117.504 10.5999C117.604 10.2999 117.704 9.89997 117.704 9.49997C117.704 8.99997 117.604 8.50004 117.404 8.20004C117.204 7.80004 116.804 7.70004 116.404 7.70004C114.504 8.00004 113.204 9.20002 112.704 11.3C112.604 11.8 112.504 12.3 112.504 12.8C112.504 13.4 112.604 13.9 112.804 14.3C113.004 14.7 113.304 14.9 113.804 14.9C113.904 14.9 114.004 14.9 114.104 14.9C115.104 14.7 115.904 14.0999 116.504 13.0999C116.704 12.5999 117.004 11.7999 117.504 10.5999Z" fill="white" stroke="white" stroke-miterlimit="10"/>
<path d="M127.804 15.5H127.304V10.7001C127.304 9.50007 127.304 8.79998 127.304 8.59998C127.204 7.79998 127.104 7.5 126.804 7.5C126.004 7.6 125.104 8.60005 124.204 10.3V15.4H123.704V10.8H123.404C123.404 10.7 123.604 10.6 123.704 10.3C123.704 9.50005 123.704 9.00007 123.604 8.70007C123.504 8.20007 123.304 7.99998 123.104 8.09998C122.704 8.19998 122.204 8.60005 121.604 9.30005C121.104 9.90005 120.704 10.5 120.504 11V15.4H120.004V11.8H119.704C119.704 11.7 119.804 11.5 120.004 11.1V7.09998H120.504V10.1C121.404 8.59998 122.204 7.70002 122.904 7.40002C123.004 7.40002 123.104 7.30005 123.204 7.30005C123.804 7.30005 124.104 8.00002 124.104 9.40002C124.804 8.00002 125.704 7.20002 126.504 6.90002C126.604 6.90002 126.704 6.80005 126.804 6.80005C127.304 6.80005 127.604 7.30007 127.704 8.20007C127.704 8.50007 127.804 9.29998 127.804 10.6V15.5Z" fill="white" stroke="white" stroke-miterlimit="10"/>
<path d="M139.504 1.30005V18.7001H139.004V1.30005H139.504Z" fill="white" stroke="white" stroke-miterlimit="10"/>
<path d="M153.404 2.20007C153.504 2.50007 153.504 2.80007 153.504 3.20007C153.504 4.60007 152.804 5.90007 151.404 7.20007C150.304 8.20007 148.804 8.70007 146.804 8.70007V15.4H146.304V5.70007H146.104C146.204 5.60007 146.204 5.40002 146.304 5.40002V1H146.804V4.70007C147.604 3.60007 148.504 2.79998 149.504 2.09998C150.504 1.49998 151.304 1.20007 152.004 1.20007C152.804 1.10007 153.204 1.50007 153.404 2.20007ZM152.804 2.30005C152.704 1.80005 152.404 1.59998 151.904 1.59998C151.204 1.59998 150.304 2.00002 149.204 2.90002C148.104 3.70002 147.304 4.60002 146.704 5.40002V8.09998C148.504 8.09998 149.904 7.60007 150.904 6.70007C152.204 5.50007 152.804 4.39998 152.804 3.09998C152.904 2.89998 152.904 2.60005 152.804 2.30005Z" fill="white" stroke="white" stroke-miterlimit="10"/>
<path d="M161.804 10.7C161.304 12 160.904 12.9 160.604 13.5C159.904 14.6 159.004 15.2 157.904 15.4C157.804 15.4 157.704 15.4 157.604 15.4C157.004 15.4 156.604 15.0999 156.204 14.5999C155.904 14.0999 155.704 13.3999 155.704 12.5999C155.704 12.0999 155.804 11.5999 155.904 11.0999C156.504 8.69994 157.904 7.39994 160.104 7.09994C160.704 6.99994 161.104 7.20004 161.504 7.70004C161.804 8.20004 162.004 8.79997 162.004 9.49997C161.904 9.99997 161.904 10.4 161.804 10.7ZM161.204 10.5999C161.304 10.2999 161.404 9.89997 161.404 9.49997C161.404 8.99997 161.304 8.50004 161.104 8.20004C160.904 7.80004 160.504 7.70004 160.104 7.70004C158.204 8.00004 156.904 9.20002 156.404 11.3C156.304 11.8 156.204 12.3 156.204 12.8C156.204 13.4 156.304 13.9 156.504 14.3C156.704 14.7 157.004 14.9 157.504 14.9C157.604 14.9 157.704 14.9 157.804 14.9C158.804 14.7 159.604 14.0999 160.204 13.0999C160.504 12.5999 160.804 11.7999 161.204 10.5999Z" fill="white" stroke="white" stroke-miterlimit="10"/>
<path d="M171.704 6.70007L169.304 15.4H168.904L167.404 8.30005L165.604 15.3H165.204L162.804 6.80005H163.404L165.404 14L167.204 6.90002H167.704L169.204 14L171.204 6.70007H171.704Z" fill="white" stroke="white" stroke-miterlimit="10"/>
<path d="M180.104 8.59998C179.904 9.19998 179.304 9.80007 178.304 10.2001C177.504 10.6001 176.804 10.8 176.204 10.8C176.004 10.8 175.904 10.8001 175.904 10.7001L176.304 10C176.304 10.1 176.404 10.2001 176.604 10.2001C177.004 10.2001 177.604 10.0001 178.204 9.70007C178.904 9.30007 179.404 8.90002 179.504 8.40002C179.604 8.20002 179.604 8.10002 179.604 7.90002C179.604 7.50002 179.404 7.30005 178.904 7.30005C178.404 7.30005 177.804 7.50005 177.004 7.80005C176.504 8.00005 175.904 8.50007 175.304 9.20007C174.604 10.1001 174.104 11.1 174.004 12.1C174.004 12.3 173.904 12.6 173.904 12.8C173.904 14 174.404 14.6 175.404 14.6C176.604 14.6 177.804 13.9 179.304 12.4L179.704 12.8C178.204 14.4 176.704 15.2001 175.404 15.2001C174.804 15.2001 174.304 15 173.904 14.6C173.504 14.2 173.404 13.6 173.404 12.8C173.404 12.6 173.404 12.3 173.504 12C173.704 10.8 174.204 9.80005 175.004 8.80005C175.704 8.00005 176.304 7.50007 176.904 7.20007C177.604 6.90007 178.204 6.80005 178.904 6.80005C179.804 6.80005 180.204 7.10005 180.204 7.80005C180.304 8.10005 180.204 8.39998 180.104 8.59998Z" fill="white" stroke="white" stroke-miterlimit="10"/>
<path d="M187.304 7.80005C187.104 7.70005 186.904 7.70007 186.704 7.70007C185.304 7.70007 184.104 8.60002 183.104 10.4V15.4H182.604V10.4H182.304C182.404 10.3 182.404 10.1 182.604 10V7.09998H183.104V9.20007C184.104 7.80007 185.304 7.09998 186.604 7.09998C186.804 7.09998 187.104 7.10007 187.404 7.20007V7.80005H187.304Z" fill="white" stroke="white" stroke-miterlimit="10"/>
<path d="M195.304 8.59998C195.104 9.19998 194.504 9.80007 193.504 10.2001C192.704 10.6001 192.004 10.8 191.404 10.8C191.204 10.8 191.104 10.8001 191.104 10.7001L191.504 10C191.504 10.1 191.604 10.2001 191.804 10.2001C192.204 10.2001 192.804 10.0001 193.404 9.70007C194.104 9.30007 194.604 8.90002 194.704 8.40002C194.804 8.20002 194.804 8.10002 194.804 7.90002C194.804 7.50002 194.604 7.30005 194.104 7.30005C193.604 7.30005 193.004 7.50005 192.204 7.80005C191.704 8.00005 191.104 8.50007 190.504 9.20007C189.804 10.1001 189.304 11.1 189.204 12.1C189.204 12.3 189.104 12.6 189.104 12.8C189.104 14 189.604 14.6 190.604 14.6C191.804 14.6 193.004 13.9 194.504 12.4L194.904 12.8C193.404 14.4 191.904 15.2001 190.604 15.2001C190.004 15.2001 189.504 15 189.104 14.6C188.704 14.2 188.604 13.6 188.604 12.8C188.604 12.6 188.604 12.3 188.704 12C188.904 10.8 189.404 9.80005 190.204 8.80005C190.904 8.00005 191.504 7.50007 192.104 7.20007C192.804 6.90007 193.404 6.80005 194.104 6.80005C195.004 6.80005 195.404 7.10005 195.404 7.80005C195.404 8.10005 195.404 8.39998 195.304 8.59998Z" fill="white" stroke="white" stroke-miterlimit="10"/>
<path d="M204.604 15.3H204.104V10.6C203.604 11.9 202.704 13 201.604 13.9C200.604 14.8 199.604 15.2001 198.804 15.2001C198.104 15.2001 197.704 14.8 197.604 14.1C197.604 13.8 197.504 13.5001 197.504 13.2001C197.504 11.5001 198.204 10 199.504 8.90002C200.704 7.90002 202.004 7.40002 203.504 7.40002C203.704 7.40002 203.904 7.40002 204.104 7.40002V0.900024H204.604V15.3ZM204.004 8.90002V8C203.804 8 203.604 8 203.404 8C202.004 8 200.804 8.50002 199.804 9.40002C198.604 10.4 198.104 11.8 198.104 13.4C198.104 13.6 198.104 13.8 198.104 14C198.104 14.5 198.404 14.7001 198.804 14.7001C199.604 14.7001 200.604 14.1 201.804 13C203.004 11.7 203.804 10.4 204.004 8.90002Z" fill="white" stroke="white" stroke-miterlimit="10"/>
<path d="M219.704 9.90002C219.704 11 219.204 12 218.204 13C217.504 13.7 216.504 14.4 215.404 14.9C214.504 15.3 213.904 15.6 213.604 15.6H213.504V15.5H213.204V9.80005L212.904 9.5C213.104 9.4 213.204 9.40002 213.204 9.40002V0.5H213.704V9.09998C214.704 8.59998 215.304 8.30007 215.604 8.20007C216.504 7.80007 217.304 7.59998 217.904 7.59998C219.204 7.69998 219.704 8.40002 219.704 9.90002ZM219.204 9.90002C219.204 8.70002 218.804 8.09998 217.804 8.09998C217.204 8.09998 216.504 8.30005 215.604 8.80005C215.404 8.90005 214.804 9.30005 213.804 9.80005V15C214.704 14.8 215.704 14.3 216.804 13.6C218.304 12.5 219.204 11.2 219.204 9.90002Z" fill="white" stroke="white" stroke-miterlimit="10"/>
<path d="M227.004 11.6C226.804 12 226.704 12.2001 226.704 12.2001V18.9H226.204V13C225.304 14.1 224.504 14.9001 223.704 15.2001C223.404 15.3001 223.204 15.4 222.904 15.4C222.504 15.4 222.204 15.1 222.004 14.6C221.904 14.3 221.904 13.9001 221.904 13.2001V7H222.404V13.2001C222.404 13.8001 222.404 14.2001 222.404 14.2001C222.504 14.6001 222.604 14.8 222.904 14.8C223.004 14.8 223.204 14.8001 223.404 14.7001C223.904 14.5001 224.404 14.1 225.104 13.5C225.604 13 226.004 12.5 226.204 12.1V7.09998H226.704V11.4L227.004 11.6Z" fill="white" stroke="white" stroke-miterlimit="10"/>
<path d="M231.104 7.30005L231.004 9.80005H230.504L230.604 7.30005H231.104ZM231.004 13V15.4H230.504V13H231.004Z" fill="white" stroke="white" stroke-miterlimit="10"/>
<path d="M249.704 1.70007C249.504 1.60007 249.204 1.59998 248.904 1.59998C247.804 1.59998 246.604 2.09998 245.404 3.09998C244.204 4.09998 243.104 5.4 242.304 7C241.404 8.7 241.004 10.5 241.004 12.3C241.004 12.7 241.004 13.1 241.104 13.5C241.204 14.4 241.704 14.8 242.504 14.8C243.704 14.8 244.904 14.1001 246.104 12.7001C247.604 11.1001 248.504 9.10007 249.004 6.70007C249.304 6.60007 249.504 6.7 249.504 7C249.504 7.7 249.504 9.2 249.504 11.5C249.504 14 249.404 15.3 249.304 15.5L248.804 14.9C248.804 13.7 248.904 11.7 249.004 8.90002C248.304 10.8 247.304 12.4001 246.004 13.7001C244.804 14.9001 243.604 15.4 242.504 15.4C241.404 15.4 240.704 14.8 240.604 13.5C240.604 13.1 240.504 12.7 240.504 12.3C240.504 10.4 241.004 8.49998 241.904 6.59998C242.804 4.89998 243.904 3.6 245.204 2.5C246.504 1.4 247.704 0.900024 248.904 0.900024C249.204 0.900024 249.404 0.9 249.704 1V1.70007Z" fill="white" stroke="white" stroke-miterlimit="10"/>
<path d="M260.104 9.59998C259.804 11.3 258.704 12.7 256.904 13.8C256.004 14.4 254.504 15 252.504 15.6V15C254.404 14.4 255.704 13.9 256.604 13.4C258.304 12.4 259.304 11.1 259.604 9.5C259.604 9.3 259.704 9.10002 259.704 8.90002C259.704 7.70002 258.904 7.20007 257.204 7.20007C256.804 7.20007 256.204 7.20005 255.404 7.30005C254.604 7.40005 254.104 7.40002 253.704 7.40002C252.604 7.40002 252.104 7.1 252.104 6.5C252.104 6.3 252.104 6.10002 252.204 5.90002C252.704 4.40002 253.504 3.30002 254.704 2.40002C255.804 1.60002 257.104 1.20007 258.504 1.20007C258.704 1.20007 258.804 1.20007 259.004 1.20007V1.70007C258.804 1.70007 258.604 1.70007 258.504 1.70007C257.204 1.70007 256.004 2.10005 255.004 2.80005C253.904 3.60005 253.204 4.7 252.804 6C252.804 6.1 252.804 6.20005 252.804 6.30005C252.804 6.70005 253.204 6.80005 253.904 6.80005C254.204 6.80005 254.704 6.80007 255.504 6.70007C256.304 6.60007 256.904 6.59998 257.304 6.59998C259.304 6.59998 260.204 7.30007 260.204 8.70007C260.204 9.00007 260.204 9.29998 260.104 9.59998Z" fill="white" stroke="white" stroke-miterlimit="10"/>
<path d="M271.004 15.3H270.404L268.104 8L263.904 10.2001V9.59998C266.804 8.19998 268.104 7.5 268.004 7.5L266.304 2.09998L261.704 15.5H261.104L266.004 1H266.404L268.404 7.30005H268.504L268.704 7.70007H268.604L271.004 15.3Z" fill="white" stroke="white" stroke-miterlimit="10"/>
<path d="M280.204 2C279.804 1.9 279.404 1.80005 278.904 1.80005C277.204 1.80005 275.704 2.59998 274.304 4.09998C272.904 5.69998 272.204 7.60007 272.204 9.70007C272.204 12.8001 273.004 14.5001 274.704 14.7001C275.004 14.7001 275.304 14.8 275.504 14.8C277.204 14.8 278.604 13.9001 279.604 12.2001L280.004 12.6C278.904 14.5 277.404 15.4 275.504 15.4C275.204 15.4 274.904 15.4 274.604 15.3C272.604 15 271.604 13.2001 271.604 9.70007C271.604 7.40007 272.404 5.40007 273.904 3.70007C275.404 2.10007 277.004 1.20007 278.804 1.20007C279.204 1.20007 279.704 1.30002 280.104 1.40002V2H280.204Z" fill="white" stroke="white" stroke-miterlimit="10"/>
<path d="M297.404 1.70007C297.204 1.60007 296.904 1.59998 296.604 1.59998C295.504 1.59998 294.304 2.09998 293.104 3.09998C291.904 4.09998 290.804 5.4 290.004 7C289.104 8.7 288.704 10.5 288.704 12.3C288.704 12.7 288.704 13.1 288.804 13.5C288.904 14.4 289.404 14.8 290.204 14.8C291.404 14.8 292.604 14.1001 293.804 12.7001C295.304 11.1001 296.204 9.10007 296.704 6.70007C297.004 6.60007 297.204 6.7 297.204 7C297.204 7.7 297.204 9.2 297.204 11.5C297.204 14 297.104 15.3 297.004 15.5L296.504 14.9C296.504 13.7 296.604 11.7 296.704 8.90002C296.004 10.8 295.004 12.4001 293.704 13.7001C292.504 14.9001 291.304 15.4 290.204 15.4C289.104 15.4 288.404 14.8 288.304 13.5C288.304 13.1 288.204 12.7 288.204 12.3C288.204 10.4 288.704 8.49998 289.604 6.59998C290.504 4.89998 291.604 3.6 292.904 2.5C294.204 1.4 295.404 0.900024 296.604 0.900024C296.904 0.900024 297.104 0.9 297.404 1V1.70007Z" fill="white" stroke="white" stroke-miterlimit="10"/>
<path d="M300.604 15.3H300.104V0.900024H300.604V15.3Z" fill="white" stroke="white" stroke-miterlimit="10"/>
<path d="M309.304 10.7C308.804 12 308.404 12.9 308.104 13.5C307.404 14.6 306.504 15.2 305.404 15.4C305.304 15.4 305.204 15.4 305.104 15.4C304.504 15.4 304.104 15.0999 303.704 14.5999C303.404 14.0999 303.204 13.3999 303.204 12.5999C303.204 12.0999 303.304 11.5999 303.404 11.0999C304.004 8.69994 305.404 7.39994 307.604 7.09994C308.204 6.99994 308.604 7.20004 309.004 7.70004C309.304 8.20004 309.504 8.79997 309.504 9.49997C309.504 9.99997 309.504 10.4 309.304 10.7ZM308.804 10.5999C308.904 10.2999 309.004 9.89997 309.004 9.49997C309.004 8.99997 308.904 8.50004 308.704 8.20004C308.504 7.80004 308.104 7.70004 307.704 7.70004C305.804 8.00004 304.504 9.20002 304.004 11.3C303.904 11.8 303.804 12.3 303.804 12.8C303.804 13.4 303.904 13.9 304.104 14.3C304.304 14.7 304.604 14.9 305.104 14.9C305.204 14.9 305.304 14.9 305.404 14.9C306.404 14.7 307.204 14.0999 307.804 13.0999C308.104 12.5999 308.404 11.7999 308.804 10.5999Z" fill="white" stroke="white" stroke-miterlimit="10"/>
<path d="M317.804 9.90002C317.804 11 317.304 12 316.304 13C315.604 13.7 314.604 14.4 313.504 14.9C312.604 15.3 312.004 15.6 311.704 15.6H311.604V15.5H311.304V9.80005L311.004 9.5C311.204 9.4 311.304 9.40002 311.304 9.40002V0.5H311.804V9.09998C312.804 8.59998 313.404 8.30007 313.704 8.20007C314.604 7.80007 315.404 7.59998 316.004 7.59998C317.304 7.69998 317.904 8.40002 317.804 9.90002ZM317.304 9.90002C317.304 8.70002 316.904 8.09998 315.904 8.09998C315.304 8.09998 314.604 8.30005 313.704 8.80005C313.504 8.90005 312.904 9.30005 311.904 9.80005V15C312.804 14.8 313.804 14.3 314.904 13.6C316.504 12.5 317.304 11.2 317.304 9.90002Z" fill="white" stroke="white" stroke-miterlimit="10"/>
<path d="M326.804 12.1C326.704 12.4 326.704 12.5 326.604 12.6V15.4H326.004V13.2001C325.404 13.7001 324.504 14.2001 323.604 14.7001C322.504 15.2001 321.604 15.5 320.804 15.5C319.704 15.5 319.204 14.9 319.304 13.8C319.404 12.7 320.404 11.8 322.204 10.9C323.504 10.3 324.804 9.90007 325.904 9.70007V8.80005C325.904 8.50005 325.804 8.10002 325.504 7.90002C325.204 7.60002 324.904 7.5 324.604 7.5C324.304 7.5 323.604 7.7 322.604 8C321.504 8.3 320.904 8.60005 320.904 8.80005H320.304C320.304 8.50005 320.804 8.20005 321.704 7.80005C322.504 7.50005 323.404 7.2 324.204 7C324.304 7 324.404 7 324.504 7C325.004 7 325.404 7.19998 325.804 7.59998C326.204 7.99998 326.404 8.40002 326.404 8.90002V9.80005C326.404 9.80005 326.404 9.80002 326.504 9.90002C326.504 10 326.604 10 326.604 10L326.504 10.3V12.2001L326.804 12.1ZM326.004 12.4V10.2001C324.904 10.4001 323.704 10.7001 322.604 11.2001C321.004 11.9001 320.104 12.8001 319.904 13.7001C319.804 14.5001 320.104 14.9 320.904 14.9C321.604 14.9 322.604 14.6 323.804 14C324.904 13.4 325.704 12.9 326.004 12.4Z" fill="white" stroke="white" stroke-miterlimit="10"/>
<path d="M329.404 15.3H328.904V0.900024H329.404V15.3Z" fill="white" stroke="white" stroke-miterlimit="10"/>
<path d="M346.304 9.59998C346.004 11.3 344.904 12.7 343.104 13.8C342.204 14.4 340.704 15 338.704 15.6V15C340.604 14.4 341.904 13.9 342.804 13.4C344.504 12.4 345.504 11.1 345.804 9.5C345.804 9.3 345.904 9.10002 345.904 8.90002C345.904 7.70002 345.104 7.20007 343.404 7.20007C343.004 7.20007 342.404 7.20005 341.604 7.30005C340.804 7.40005 340.304 7.40002 339.904 7.40002C338.804 7.40002 338.304 7.1 338.304 6.5C338.304 6.3 338.304 6.10002 338.404 5.90002C338.904 4.40002 339.704 3.30002 340.904 2.40002C342.004 1.60002 343.304 1.20007 344.704 1.20007C344.904 1.20007 345.004 1.20007 345.204 1.20007V1.70007C345.004 1.70007 344.804 1.70007 344.704 1.70007C343.404 1.70007 342.204 2.10005 341.204 2.80005C340.104 3.60005 339.404 4.7 339.004 6C339.004 6.1 339.004 6.20005 339.004 6.30005C339.004 6.70005 339.404 6.80005 340.104 6.80005C340.404 6.80005 340.904 6.80007 341.704 6.70007C342.504 6.60007 343.104 6.59998 343.504 6.59998C345.504 6.59998 346.404 7.30007 346.404 8.70007C346.404 9.00007 346.404 9.29998 346.304 9.59998Z" fill="white" stroke="white" stroke-miterlimit="10"/>
<path d="M354.604 8.59998C354.404 9.19998 353.804 9.80007 352.804 10.2001C352.004 10.6001 351.304 10.8 350.704 10.8C350.504 10.8 350.404 10.8001 350.404 10.7001L350.804 10C350.804 10.1 350.904 10.2001 351.104 10.2001C351.504 10.2001 352.104 10.0001 352.704 9.70007C353.404 9.30007 353.904 8.90002 354.004 8.40002C354.104 8.20002 354.104 8.10002 354.104 7.90002C354.104 7.50002 353.904 7.30005 353.404 7.30005C352.904 7.30005 352.304 7.50005 351.504 7.80005C351.004 8.00005 350.404 8.50007 349.804 9.20007C349.104 10.1001 348.604 11.1 348.504 12.1C348.504 12.3 348.404 12.6 348.404 12.8C348.404 14 348.904 14.6 349.904 14.6C351.104 14.6 352.304 13.9 353.804 12.4L354.204 12.8C352.704 14.4 351.204 15.2001 349.904 15.2001C349.304 15.2001 348.804 15 348.404 14.6C348.004 14.2 347.904 13.6 347.904 12.8C347.904 12.6 347.904 12.3 348.004 12C348.204 10.8 348.704 9.80005 349.504 8.80005C350.204 8.00005 350.804 7.50007 351.404 7.20007C352.104 6.90007 352.704 6.80005 353.404 6.80005C354.304 6.80005 354.704 7.10005 354.704 7.80005C354.704 8.10005 354.604 8.39998 354.604 8.59998Z" fill="white" stroke="white" stroke-miterlimit="10"/>
<path d="M361.704 7.80005C361.504 7.70005 361.304 7.70007 361.104 7.70007C359.704 7.70007 358.504 8.60002 357.504 10.4V15.4H356.904V10.4H356.604C356.704 10.3 356.704 10.1 356.904 10V7.09998H357.404V9.20007C358.404 7.80007 359.604 7.09998 360.904 7.09998C361.104 7.09998 361.404 7.10007 361.704 7.20007V7.80005Z" fill="white" stroke="white" stroke-miterlimit="10"/>
<path d="M369.004 7.20007L366.104 15.3H365.704L362.904 7.20007H363.504L366.004 14.3L368.604 7.30005L369.004 7.20007Z" fill="white" stroke="white" stroke-miterlimit="10"/>
<path d="M372.004 6.5H371.504V5.20007H372.004V6.5ZM372.004 7.30005V15.4H371.504V7.30005H372.004Z" fill="white" stroke="white" stroke-miterlimit="10"/>
<path d="M380.504 7.70009L380.104 8.09999C379.804 7.89999 379.504 7.80007 379.204 7.80007C378.404 7.80007 377.504 8.30009 376.604 9.20009C375.704 10.2001 375.204 11.2001 375.104 12.3001C375.104 12.5001 375.104 12.6001 375.104 12.8001C375.104 14.0001 375.704 14.7001 376.904 14.7001C378.004 14.7001 379.104 14.2001 380.104 13.3001L380.504 13.7001C379.404 14.8001 378.204 15.3001 376.904 15.3001C376.204 15.3001 375.704 15.1001 375.204 14.7001C374.804 14.3001 374.504 13.7 374.504 12.9C374.504 12.7 374.504 12.5001 374.504 12.3001C374.704 11.1001 375.204 9.90004 376.304 8.90004C377.404 7.90004 378.304 7.40004 379.304 7.40004C379.804 7.30004 380.104 7.40009 380.504 7.70009Z" fill="white" stroke="white" stroke-miterlimit="10"/>
<path d="M388.904 8.59998C388.704 9.19998 388.104 9.80007 387.104 10.2001C386.304 10.6001 385.604 10.8 385.004 10.8C384.804 10.8 384.704 10.8001 384.704 10.7001L385.104 10C385.104 10.1 385.204 10.2001 385.404 10.2001C385.804 10.2001 386.404 10.0001 387.004 9.70007C387.704 9.30007 388.204 8.90002 388.304 8.40002C388.404 8.20002 388.404 8.10002 388.404 7.90002C388.404 7.50002 388.204 7.30005 387.704 7.30005C387.204 7.30005 386.604 7.50005 385.804 7.80005C385.304 8.00005 384.704 8.50007 384.104 9.20007C383.404 10.1001 382.904 11.1 382.804 12.1C382.804 12.3 382.704 12.6 382.704 12.8C382.704 14 383.204 14.6 384.204 14.6C385.404 14.6 386.604 13.9 388.104 12.4L388.504 12.8C387.004 14.4 385.504 15.2001 384.204 15.2001C383.604 15.2001 383.104 15 382.704 14.6C382.304 14.2 382.204 13.6 382.204 12.8C382.204 12.6 382.204 12.3 382.304 12C382.504 10.8 383.004 9.80005 383.804 8.80005C384.504 8.00005 385.104 7.50007 385.704 7.20007C386.404 6.90007 387.004 6.80005 387.704 6.80005C388.604 6.80005 389.004 7.10005 389.004 7.80005C389.004 8.10005 389.004 8.39998 388.904 8.59998Z" fill="white" stroke="white" stroke-miterlimit="10"/>
<path d="M397.104 11.9C396.704 13.4 394.804 14.6 391.504 15.5V14.9C392.904 14.6 393.804 14.3 394.404 14C395.604 13.4 396.304 12.7 396.604 11.9C396.704 11.7 396.704 11.5 396.704 11.4C396.704 10.9 396.304 10.6 395.604 10.6C395.304 10.6 394.704 10.7 393.904 10.8C393.104 10.9 392.604 11 392.304 11C391.604 11 391.304 10.8 391.304 10.3C391.304 10.2 391.304 10 391.404 9.80005C391.704 8.90005 392.304 8.20007 393.304 7.70007C394.204 7.20007 395.304 7.09998 396.404 7.09998V7.59998C395.404 7.49998 394.504 7.7 393.704 8C392.904 8.4 392.404 8.90007 392.004 9.70007C392.004 9.80007 391.904 9.9 391.904 10C391.904 10.2 392.104 10.3 392.504 10.3C392.704 10.3 393.204 10.2 394.004 10.1C394.804 9.99998 395.304 9.90002 395.704 9.90002C396.704 9.90002 397.204 10.3 397.204 11C397.204 11.5 397.104 11.7 397.104 11.9Z" fill="white" stroke="white" stroke-miterlimit="10"/>
<path d="M414.104 15.3H413.504L411.204 8L407.004 10.2001V9.59998C409.904 8.19998 411.204 7.5 411.104 7.5L409.404 2.09998L404.804 15.5H404.204L409.104 1H409.504L411.504 7.30005H411.604L411.804 7.70007H411.704L414.104 15.3Z" fill="white" stroke="white" stroke-miterlimit="10"/>
<path d="M422.204 15.3H421.704V10.6C421.204 11.9 420.304 13 419.204 13.9C418.204 14.8 417.204 15.2001 416.404 15.2001C415.704 15.2001 415.304 14.8 415.204 14.1C415.204 13.8 415.104 13.5001 415.104 13.2001C415.104 11.5001 415.804 10 417.104 8.90002C418.304 7.90002 419.604 7.40002 421.104 7.40002C421.304 7.40002 421.504 7.40002 421.704 7.40002V0.900024H422.204V15.3ZM421.704 8.90002V8C421.504 8 421.304 8 421.104 8C419.704 8 418.504 8.50002 417.504 9.40002C416.304 10.4 415.804 11.8 415.804 13.4C415.804 13.6 415.804 13.8 415.804 14C415.804 14.5 416.104 14.7001 416.504 14.7001C417.304 14.7001 418.304 14.1 419.504 13C420.704 11.7 421.504 10.4 421.704 8.90002Z" fill="white" stroke="white" stroke-miterlimit="10"/>
<path d="M430.404 7.20007L427.504 15.3H427.104L424.304 7.20007H424.904L427.404 14.3L430.004 7.30005L430.404 7.20007Z" fill="white" stroke="white" stroke-miterlimit="10"/>
<path d="M433.404 6.5H432.904V5.20007H433.404V6.5ZM433.404 7.30005V15.4H432.904V7.30005H433.404Z" fill="white" stroke="white" stroke-miterlimit="10"/>
<path d="M441.904 11.9C441.504 13.4 439.604 14.6 436.304 15.5V14.9C437.704 14.6 438.604 14.3 439.204 14C440.404 13.4 441.104 12.7 441.404 11.9C441.504 11.7 441.504 11.5 441.504 11.4C441.504 10.9 441.104 10.6 440.404 10.6C440.104 10.6 439.504 10.7 438.704 10.8C437.904 10.9 437.404 11 437.104 11C436.404 11 436.104 10.8 436.104 10.3C436.104 10.2 436.104 10 436.204 9.80005C436.504 8.90005 437.104 8.20007 438.104 7.70007C439.004 7.20007 440.104 7.09998 441.204 7.09998V7.59998C440.204 7.49998 439.304 7.7 438.504 8C437.704 8.4 437.204 8.90007 436.804 9.70007C436.804 9.80007 436.704 9.9 436.704 10C436.704 10.2 436.904 10.3 437.304 10.3C437.504 10.3 438.004 10.2 438.804 10.1C439.604 9.99998 440.104 9.90002 440.504 9.90002C441.504 9.90002 442.004 10.3 442.004 11C442.004 11.5 442.004 11.7 441.904 11.9Z" fill="white" stroke="white" stroke-miterlimit="10"/>
<path d="M449.804 10.7C449.304 12 448.904 12.9 448.604 13.5C447.904 14.6 447.004 15.2 445.904 15.4C445.804 15.4 445.704 15.4 445.604 15.4C445.004 15.4 444.604 15.0999 444.204 14.5999C443.904 14.0999 443.704 13.3999 443.704 12.5999C443.704 12.0999 443.804 11.5999 443.904 11.0999C444.504 8.69994 445.904 7.39994 448.104 7.09994C448.704 6.99994 449.104 7.20004 449.504 7.70004C449.804 8.20004 450.004 8.79997 450.004 9.49997C450.004 9.99997 449.904 10.4 449.804 10.7ZM449.304 10.5999C449.404 10.2999 449.504 9.89997 449.504 9.49997C449.504 8.99997 449.404 8.50004 449.204 8.20004C449.004 7.80004 448.604 7.70004 448.204 7.70004C446.304 8.00004 445.004 9.20002 444.504 11.3C444.404 11.8 444.304 12.3 444.304 12.8C444.304 13.4 444.404 13.9 444.604 14.3C444.804 14.7 445.104 14.9 445.604 14.9C445.704 14.9 445.804 14.9 445.904 14.9C446.904 14.7 447.704 14.0999 448.304 13.0999C448.504 12.5999 448.804 11.7999 449.304 10.5999Z" fill="white" stroke="white" stroke-miterlimit="10"/>
<path d="M456.404 7.80005C456.204 7.70005 456.004 7.70007 455.804 7.70007C454.404 7.70007 453.204 8.60002 452.204 10.4V15.4H451.704V10.4H451.404C451.504 10.3 451.504 10.1 451.704 10V7.09998H452.204V9.20007C453.204 7.80007 454.404 7.09998 455.704 7.09998C455.904 7.09998 456.204 7.10007 456.504 7.20007V7.80005H456.404Z" fill="white" stroke="white" stroke-miterlimit="10"/>
<path d="M463.904 11.9C463.504 13.4 461.604 14.6 458.304 15.5V14.9C459.704 14.6 460.604 14.3 461.204 14C462.404 13.4 463.104 12.7 463.404 11.9C463.504 11.7 463.504 11.5 463.504 11.4C463.504 10.9 463.104 10.6 462.404 10.6C462.104 10.6 461.504 10.7 460.704 10.8C459.904 10.9 459.404 11 459.104 11C458.404 11 458.104 10.8 458.104 10.3C458.104 10.2 458.104 10 458.204 9.80005C458.504 8.90005 459.104 8.20007 460.104 7.70007C461.004 7.20007 462.104 7.09998 463.204 7.09998V7.59998C462.204 7.49998 461.304 7.7 460.504 8C459.704 8.4 459.204 8.90007 458.804 9.70007C458.804 9.80007 458.704 9.9 458.704 10C458.704 10.2 458.904 10.3 459.304 10.3C459.504 10.3 460.004 10.2 460.804 10.1C461.604 9.99998 462.104 9.90002 462.504 9.90002C463.504 9.90002 464.004 10.3 464.004 11C464.004 11.5 464.004 11.7 463.904 11.9Z" fill="white" stroke="white" stroke-miterlimit="10"/>
<path d="M479.004 12.1C478.904 12.4 478.904 12.5 478.804 12.6V15.4H478.204V13.2001C477.604 13.7001 476.704 14.2001 475.804 14.7001C474.704 15.2001 473.804 15.5 473.004 15.5C471.904 15.5 471.404 14.9 471.504 13.8C471.604 12.7 472.604 11.8 474.404 10.9C475.704 10.3 477.004 9.90007 478.104 9.70007V8.80005C478.104 8.50005 478.004 8.10002 477.704 7.90002C477.404 7.60002 477.104 7.5 476.804 7.5C476.504 7.5 475.804 7.7 474.804 8C473.704 8.3 473.104 8.60005 473.104 8.80005H472.504C472.504 8.50005 473.004 8.20005 473.904 7.80005C474.704 7.50005 475.604 7.2 476.404 7C476.504 7 476.604 7 476.704 7C477.204 7 477.604 7.19998 478.004 7.59998C478.404 7.99998 478.604 8.40002 478.604 8.90002V9.80005C478.604 9.80005 478.604 9.80002 478.704 9.90002C478.704 10 478.804 10 478.804 10L478.704 10.3V12.2001L479.004 12.1ZM478.204 12.4V10.2001C477.104 10.4001 475.904 10.7001 474.804 11.2001C473.204 11.9001 472.304 12.8001 472.104 13.7001C472.004 14.5001 472.304 14.9 473.104 14.9C473.804 14.9 474.804 14.6 476.004 14C477.104 13.4 477.904 12.9 478.204 12.4Z" fill="white" stroke="white" stroke-miterlimit="10"/>
<path d="M485.804 15.4H485.304V11C485.304 10 485.304 9.3 485.204 9C485.104 8.3 484.904 7.90002 484.604 7.90002C484.504 7.90002 484.504 7.9 484.404 8C483.404 8.4 482.404 9.50002 481.304 11.4V15.4H480.904V11.8H480.604C480.604 11.7 480.704 11.5 480.904 11.3V7.09998H481.404V10.5C482.604 8.7 483.604 7.70005 484.504 7.30005C484.604 7.30005 484.804 7.20007 484.904 7.20007C485.404 7.20007 485.704 7.69998 485.804 8.59998C485.904 8.99998 485.904 9.8 485.904 11V15.4H485.804Z" fill="white" stroke="white" stroke-miterlimit="10"/>
<path d="M495.104 15.3H494.604V10.6C494.104 11.9 493.204 13 492.104 13.9C491.104 14.8 490.104 15.2001 489.304 15.2001C488.604 15.2001 488.204 14.8 488.104 14.1C488.104 13.8 488.004 13.5001 488.004 13.2001C488.004 11.5001 488.704 10 490.004 8.90002C491.204 7.90002 492.504 7.40002 494.004 7.40002C494.204 7.40002 494.404 7.40002 494.604 7.40002V0.900024H495.104V15.3ZM494.504 8.90002V8C494.304 8 494.104 8 493.904 8C492.504 8 491.304 8.50002 490.304 9.40002C489.104 10.4 488.604 11.8 488.604 13.4C488.604 13.6 488.604 13.8 488.604 14C488.604 14.5 488.904 14.7001 489.304 14.7001C490.104 14.7001 491.104 14.1 492.304 13C493.604 11.7 494.304 10.4 494.504 8.90002Z" fill="white" stroke="white" stroke-miterlimit="10"/>
<path d="M511.604 2C511.204 1.9 510.804 1.80005 510.304 1.80005C508.604 1.80005 507.104 2.59998 505.704 4.09998C504.304 5.69998 503.604 7.60007 503.604 9.70007C503.604 12.8001 504.404 14.5001 506.104 14.7001C506.404 14.7001 506.704 14.8 506.904 14.8C508.604 14.8 510.004 13.9001 511.004 12.2001L511.404 12.6C510.304 14.5 508.804 15.4 506.904 15.4C506.604 15.4 506.304 15.4 506.004 15.3C504.004 15 503.004 13.2001 503.004 9.70007C503.004 7.40007 503.804 5.40007 505.304 3.70007C506.804 2.10007 508.404 1.20007 510.204 1.20007C510.604 1.20007 511.104 1.30002 511.504 1.40002V2H511.604Z" fill="white" stroke="white" stroke-miterlimit="10"/>
<path d="M519.804 10.7C519.304 12 518.904 12.9 518.604 13.5C517.904 14.6 517.004 15.2 515.904 15.4C515.804 15.4 515.704 15.4 515.604 15.4C515.004 15.4 514.604 15.0999 514.204 14.5999C513.904 14.0999 513.704 13.3999 513.704 12.5999C513.704 12.0999 513.804 11.5999 513.904 11.0999C514.504 8.69994 515.904 7.39994 518.104 7.09994C518.704 6.99994 519.104 7.20004 519.504 7.70004C519.804 8.20004 520.004 8.79997 520.004 9.49997C520.004 9.99997 519.904 10.4 519.804 10.7ZM519.304 10.5999C519.404 10.2999 519.504 9.89997 519.504 9.49997C519.504 8.99997 519.404 8.50004 519.204 8.20004C519.004 7.80004 518.604 7.70004 518.204 7.70004C516.304 8.00004 515.004 9.20002 514.504 11.3C514.404 11.8 514.304 12.3 514.304 12.8C514.304 13.4 514.404 13.9 514.604 14.3C514.804 14.7 515.104 14.9 515.604 14.9C515.704 14.9 515.804 14.9 515.904 14.9C516.904 14.7 517.704 14.0999 518.304 13.0999C518.504 12.5999 518.804 11.7999 519.304 10.5999Z" fill="white" stroke="white" stroke-miterlimit="10"/>
<path d="M526.504 15.4H525.904V11C525.904 10 525.904 9.3 525.804 9C525.704 8.3 525.504 7.90002 525.204 7.90002C525.104 7.90002 525.104 7.9 525.004 8C524.004 8.4 523.004 9.50002 521.904 11.4V15.4H521.404V11.8H521.104C521.104 11.7 521.204 11.5 521.404 11.3V7.09998H521.904V10.5C523.104 8.7 524.104 7.70005 525.004 7.30005C525.104 7.30005 525.304 7.20007 525.404 7.20007C525.904 7.20007 526.204 7.69998 526.304 8.59998C526.404 8.99998 526.404 9.8 526.404 11V15.4H526.504Z" fill="white" stroke="white" stroke-miterlimit="10"/>
<path d="M534.604 11.9C534.204 13.4 532.304 14.6 529.004 15.5V14.9C530.404 14.6 531.304 14.3 531.904 14C533.104 13.4 533.804 12.7 534.104 11.9C534.204 11.7 534.204 11.5 534.204 11.4C534.204 10.9 533.804 10.6 533.104 10.6C532.804 10.6 532.204 10.7 531.404 10.8C530.604 10.9 530.104 11 529.804 11C529.104 11 528.804 10.8 528.804 10.3C528.804 10.2 528.804 10 528.904 9.80005C529.204 8.90005 529.804 8.20007 530.804 7.70007C531.704 7.20007 532.804 7.09998 533.904 7.09998V7.59998C532.904 7.49998 532.004 7.7 531.204 8C530.404 8.4 529.904 8.90007 529.504 9.70007C529.504 9.80007 529.404 9.9 529.404 10C529.404 10.2 529.604 10.3 530.004 10.3C530.204 10.3 530.704 10.2 531.504 10.1C532.304 9.99998 532.804 9.90002 533.204 9.90002C534.204 9.90002 534.704 10.3 534.704 11C534.704 11.5 534.704 11.7 534.604 11.9Z" fill="white" stroke="white" stroke-miterlimit="10"/>
<path d="M541.504 11.7001C541.404 11.8001 541.304 12.0001 541.204 12.2001V15.4H540.704V13C539.804 14.2 539.004 14.9001 538.104 15.2001C537.804 15.3001 537.604 15.4 537.304 15.4C536.904 15.4 536.604 15.1 536.404 14.6C536.304 14.3 536.304 13.9001 536.304 13.2001V7H536.804V13.2001C536.804 13.8001 536.804 14.1001 536.804 14.2001C536.804 14.6001 537.004 14.8 537.304 14.8C537.404 14.8 537.604 14.8001 537.804 14.7001C538.304 14.5001 538.804 14.1 539.504 13.4C540.004 12.9 540.404 12.4 540.604 12V7H541.104V11.7001H541.504Z" fill="white" stroke="white" stroke-miterlimit="10"/>
<path d="M544.404 15.3H543.904V0.900024H544.404V15.3Z" fill="white" stroke="white" stroke-miterlimit="10"/>
<path d="M553.004 11.8C552.804 12.3 552.504 12.9 552.004 13.6C551.404 14.4 550.704 15.0001 550.104 15.2001C549.804 15.3001 549.604 15.4 549.304 15.4C548.904 15.4 548.604 15.1 548.404 14.6C548.304 14.3 548.304 13.9001 548.304 13.2001V8.80005L546.404 9.59998V9L548.304 8.20007V2.80005H548.804V8L551.404 6.80005V7.40002L548.804 8.59998V13.2001C548.804 13.8001 548.804 14.1001 548.804 14.2001C548.904 14.6001 549.004 14.8 549.304 14.8C549.404 14.8 549.604 14.8001 549.804 14.7001C550.304 14.5001 550.904 14 551.504 13.3C551.904 12.7 552.204 12.2 552.404 11.9H553.004V11.8Z" fill="white" stroke="white" stroke-miterlimit="10"/>
<path d="M561.204 12.1C561.104 12.4 561.104 12.5 561.004 12.6V15.4H560.404V13.2001C559.804 13.7001 558.904 14.2001 558.004 14.7001C556.904 15.2001 556.004 15.5 555.204 15.5C554.104 15.5 553.604 14.9 553.704 13.8C553.804 12.7 554.804 11.8 556.604 10.9C557.904 10.3 559.204 9.90007 560.304 9.70007V8.80005C560.304 8.50005 560.204 8.10002 559.904 7.90002C559.604 7.60002 559.304 7.5 559.004 7.5C558.704 7.5 558.004 7.7 557.004 8C555.904 8.3 555.304 8.60005 555.304 8.80005H554.904C554.904 8.50005 555.404 8.20005 556.304 7.80005C557.104 7.50005 558.004 7.2 558.804 7C558.904 7 559.004 7 559.104 7C559.604 7 560.004 7.19998 560.404 7.59998C560.804 7.99998 561.004 8.40002 561.004 8.90002V9.80005C561.004 9.80005 561.004 9.80002 561.104 9.90002C561.104 10 561.204 10 561.204 10L561.104 10.3V12.2001L561.204 12.1ZM560.504 12.4V10.2001C559.404 10.4001 558.204 10.7001 557.104 11.2001C555.504 11.9001 554.604 12.8001 554.404 13.7001C554.304 14.5001 554.604 14.9 555.404 14.9C556.104 14.9 557.104 14.6 558.304 14C559.404 13.4 560.104 12.9 560.504 12.4Z" fill="white" stroke="white" stroke-miterlimit="10"/>
<path d="M568.104 15.4H567.604V11C567.604 10 567.604 9.3 567.504 9C567.404 8.3 567.204 7.90002 566.904 7.90002C566.804 7.90002 566.804 7.9 566.704 8C565.704 8.4 564.704 9.50002 563.604 11.4V15.4H563.104V11.8H562.804C562.804 11.7 562.904 11.5 563.104 11.3V7.09998H563.604V10.5C564.804 8.7 565.804 7.70005 566.704 7.30005C566.804 7.30005 567.004 7.20007 567.104 7.20007C567.604 7.20007 567.904 7.69998 568.004 8.59998C568.104 8.99998 568.104 9.8 568.104 11V15.4Z" fill="white" stroke="white" stroke-miterlimit="10"/>
<path d="M576.304 11.9C575.904 13.4 574.004 14.6 570.704 15.5V14.9C572.104 14.6 573.004 14.3 573.604 14C574.804 13.4 575.504 12.7 575.804 11.9C575.904 11.7 575.904 11.5 575.904 11.4C575.904 10.9 575.504 10.6 574.804 10.6C574.504 10.6 573.904 10.7 573.104 10.8C572.304 10.9 571.804 11 571.504 11C570.804 11 570.504 10.8 570.504 10.3C570.504 10.2 570.504 10 570.604 9.80005C570.904 8.90005 571.504 8.20007 572.504 7.70007C573.404 7.20007 574.504 7.09998 575.604 7.09998V7.59998C574.604 7.49998 573.704 7.7 572.904 8C572.104 8.4 571.604 8.90007 571.204 9.70007C571.204 9.80007 571.104 9.9 571.104 10C571.104 10.2 571.304 10.3 571.704 10.3C571.904 10.3 572.404 10.2 573.204 10.1C574.004 9.99998 574.504 9.90002 574.904 9.90002C575.904 9.90002 576.404 10.3 576.404 11C576.404 11.5 576.304 11.7 576.304 11.9Z" fill="white" stroke="white" stroke-miterlimit="10"/>
<path d="M587.704 1.30005V18.7001H587.204V1.30005H587.704Z" fill="white" stroke="white" stroke-miterlimit="10"/>
<path d="M608.504 2C608.104 1.9 607.704 1.80005 607.204 1.80005C605.504 1.80005 604.004 2.59998 602.604 4.09998C601.204 5.69998 600.504 7.60007 600.504 9.70007C600.504 12.8001 601.304 14.5001 603.004 14.7001C603.304 14.7001 603.604 14.8 603.804 14.8C605.504 14.8 606.904 13.9001 607.904 12.2001L608.304 12.6C607.204 14.5 605.704 15.4 603.804 15.4C603.504 15.4 603.204 15.4 602.904 15.3C600.904 15 599.904 13.2001 599.904 9.70007C599.904 7.40007 600.704 5.40007 602.204 3.70007C603.704 2.10007 605.304 1.20007 607.104 1.20007C607.504 1.20007 608.004 1.30002 608.404 1.40002V2H608.504Z" fill="white" stroke="white" stroke-miterlimit="10"/>
<path d="M616.704 10.7C616.204 12 615.804 12.9 615.504 13.5C614.804 14.6 613.904 15.2 612.804 15.4C612.704 15.4 612.604 15.4 612.504 15.4C611.904 15.4 611.504 15.0999 611.104 14.5999C610.804 14.0999 610.604 13.3999 610.604 12.5999C610.604 12.0999 610.704 11.5999 610.804 11.0999C611.404 8.69994 612.804 7.39994 615.004 7.09994C615.604 6.99994 616.004 7.20004 616.404 7.70004C616.704 8.20004 616.904 8.79997 616.904 9.49997C616.904 9.99997 616.904 10.4 616.704 10.7ZM616.204 10.5999C616.304 10.2999 616.404 9.89997 616.404 9.49997C616.404 8.99997 616.304 8.50004 616.104 8.20004C615.904 7.80004 615.504 7.70004 615.104 7.70004C613.204 8.00004 611.904 9.20002 611.404 11.3C611.304 11.8 611.204 12.3 611.204 12.8C611.204 13.4 611.304 13.9 611.504 14.3C611.704 14.7 612.004 14.9 612.504 14.9C612.604 14.9 612.704 14.9 612.804 14.9C613.804 14.7 614.604 14.0999 615.204 13.0999C615.404 12.5999 615.804 11.7999 616.204 10.5999Z" fill="white" stroke="white" stroke-miterlimit="10"/>
<path d="M625.204 9.90002C625.204 11.3 624.304 12.7 622.704 13.9C621.704 14.6 620.604 15.2001 619.304 15.7001V19.3H618.804V10L618.604 9.59998L618.804 9.5V6.90002H619.304V9.20007C621.104 8.20007 622.504 7.70007 623.404 7.70007C624.604 7.50007 625.204 8.30002 625.204 9.90002ZM624.704 9.90002C624.704 8.70002 624.304 8.09998 623.404 8.09998C622.604 8.09998 621.304 8.70005 619.304 9.80005V15C620.404 14.6 621.404 14.1 622.304 13.4C623.904 12.2 624.704 11.1 624.704 9.90002Z" fill="white" stroke="white" stroke-miterlimit="10"/>
<path d="M632.604 11.6C632.404 12 632.304 12.2001 632.304 12.2001V18.9H631.804V13C630.904 14.1 630.104 14.9001 629.304 15.2001C629.004 15.3001 628.804 15.4 628.504 15.4C628.104 15.4 627.804 15.1 627.604 14.6C627.504 14.3 627.504 13.9001 627.504 13.2001V7H628.004V13.2001C628.004 13.8001 628.004 14.2001 628.004 14.2001C628.104 14.6001 628.204 14.8 628.504 14.8C628.604 14.8 628.804 14.8001 629.004 14.7001C629.504 14.5001 630.004 14.1 630.704 13.5C631.204 13 631.604 12.5 631.804 12.1V7.09998H632.304V11.4L632.604 11.6Z" fill="white" stroke="white" stroke-miterlimit="10"/>
<path d="M639.704 7.80005C639.504 7.70005 639.304 7.70007 639.104 7.70007C637.704 7.70007 636.504 8.60002 635.504 10.4V15.4H635.004V10.4H634.704C634.804 10.3 634.804 10.1 635.004 10V7.09998H635.504V9.20007C636.504 7.80007 637.704 7.09998 639.004 7.09998C639.204 7.09998 639.504 7.10007 639.804 7.20007V7.80005H639.704Z" fill="white" stroke="white" stroke-miterlimit="10"/>
<path d="M643.004 6.5H642.504V5.20007H643.004V6.5ZM643.004 7.30005V15.4H642.504V7.30005H643.004Z" fill="white" stroke="white" stroke-miterlimit="10"/>
<path d="M652.204 18.7001H651.704V10.9C651.104 12.1 650.304 13.1 649.304 14C648.304 14.8 647.404 15.2001 646.604 15.2001C645.904 15.2001 645.504 14.8 645.304 14.1C645.204 13.7 645.204 13.4 645.204 13C645.204 11.3 645.904 9.90005 647.204 8.80005C648.404 7.80005 649.704 7.30005 651.104 7.30005C651.404 7.30005 651.704 7.30002 652.004 7.40002H652.304V18.7001H652.204ZM651.904 8.09998C651.604 7.99998 651.204 8 650.904 8C649.604 8 648.404 8.40005 647.404 9.30005C646.304 10.3 645.804 11.6 645.804 13.3C645.804 13.5 645.804 13.8 645.804 14.1C645.804 14.6 646.104 14.8 646.504 14.8C647.304 14.8 648.204 14.2 649.304 13.1C650.504 11.9 651.304 10.6 651.604 9.09998C651.704 8.79998 651.704 8.49998 651.904 8.09998Z" fill="white" stroke="white" stroke-miterlimit="10"/>
<path d="M660.004 11.8C659.804 12.3 659.504 12.9 659.004 13.6C658.404 14.4 657.704 15.0001 657.104 15.2001C656.804 15.3001 656.604 15.4 656.304 15.4C655.904 15.4 655.604 15.1 655.404 14.6C655.304 14.3 655.304 13.9001 655.304 13.2001V8.80005L653.404 9.59998V9L655.304 8.20007V2.80005H655.804V8L658.404 6.80005V7.40002L655.804 8.59998V13.2001C655.804 13.8001 655.804 14.1001 655.804 14.2001C655.904 14.6001 656.004 14.8 656.304 14.8C656.404 14.8 656.604 14.8001 656.804 14.7001C657.304 14.5001 657.904 14 658.504 13.3C658.904 12.7 659.204 12.2 659.404 11.9H660.004V11.8Z" fill="white" stroke="white" stroke-miterlimit="10"/>
<path d="M666.704 15.4H666.204V9.20007C666.204 8.70007 666.204 8.40005 666.204 8.30005C666.204 8.00005 666.004 7.80005 665.804 7.80005C665.504 7.80005 664.904 8.20002 664.104 8.90002C663.204 9.80002 662.504 10.8 661.804 12.1V15.5H661.304V12.2001H661.104C661.104 12.1001 661.204 12 661.304 11.8V1.09998H661.804V10.8C662.404 9.80005 663.004 9.00002 663.604 8.40002C664.604 7.40002 665.404 6.90002 665.904 6.90002C666.304 6.90002 666.504 7.20007 666.604 7.70007C666.604 7.90007 666.704 8.39998 666.704 9.09998V15.4Z" fill="white" stroke="white" stroke-miterlimit="10"/>
<path d="M684.004 2.80005C684.004 4.10005 683.104 6.09998 681.404 8.59998C679.904 10.7 678.404 12.6 676.604 14.3C676.504 14.4 676.404 14.4 676.304 14.6L683.904 13.4V14L675.304 15.4L675.104 15C675.404 14.8 675.704 14.5 676.204 14C677.804 12.4 679.404 10.6 680.904 8.5C682.604 6.1 683.404 4.29998 683.404 3.09998C683.404 2.09998 682.804 1.70007 681.604 1.70007C678.904 1.80007 676.904 3.00005 675.604 5.30005H675.004C676.504 2.60005 678.704 1.20007 681.604 1.20007C682.404 1.20007 682.904 1.30007 683.404 1.70007C683.804 1.80007 684.004 2.30005 684.004 2.80005Z" fill="white" stroke="white" stroke-miterlimit="10"/>
<path d="M698.504 9.5C698.104 11.1 697.204 12.5 695.904 13.6C694.604 14.8 693.204 15.4 691.704 15.4C690.904 15.4 690.204 15.2 689.504 14.8C687.304 13.6 686.304 11.4001 686.304 8.20007C686.304 6.40007 687.104 4.6 688.704 3C690.304 1.4 692.004 0.599976 693.804 0.599976C694.804 0.599976 695.704 0.9 696.404 1.5C698.004 2.9 698.804 4.60005 698.804 6.80005C698.904 7.70005 698.804 8.5 698.504 9.5ZM698.004 9.40002C698.204 8.50002 698.304 7.70002 698.304 6.90002C698.304 4.90002 697.604 3.3 696.104 2C695.404 1.4 694.704 1.20007 693.804 1.20007C692.204 1.20007 690.604 2 689.104 3.5C687.604 5 686.904 6.60005 686.904 8.30005C686.904 11.2 687.904 13.3 689.904 14.4C690.504 14.8 691.204 14.9 691.904 14.9C693.204 14.9 694.504 14.3001 695.704 13.2001C696.804 12.1001 697.604 10.8 698.004 9.40002Z" fill="white" stroke="white" stroke-miterlimit="10"/>
<path d="M710.104 2.80005C710.104 4.10005 709.204 6.09998 707.504 8.59998C706.004 10.7 704.504 12.6 702.704 14.3C702.604 14.4 702.504 14.4 702.404 14.6L710.004 13.4V14L701.404 15.4L701.204 15C701.504 14.8 701.804 14.5 702.304 14C703.904 12.4 705.504 10.6 707.004 8.5C708.704 6.1 709.504 4.29998 709.504 3.09998C709.504 2.09998 708.904 1.70007 707.704 1.70007C705.004 1.80007 703.004 3.00005 701.704 5.30005H701.104C702.604 2.60005 704.804 1.20007 707.704 1.20007C708.504 1.20007 709.004 1.30007 709.504 1.70007C709.904 1.80007 710.104 2.30005 710.104 2.80005Z" fill="white" stroke="white" stroke-miterlimit="10"/>
<path d="M720.904 6.09998C721.104 6.39998 721.304 6.80005 721.304 7.30005C721.304 8.10005 721.004 9 720.404 10C719.804 10.9 719.104 11.8 718.304 12.6C717.604 13.3 716.604 13.8 715.304 14.3C714.204 14.7 713.404 14.9 712.704 14.9C712.604 14.9 712.604 14.9 712.504 14.9V14.3C712.604 14.3 712.604 14.3 712.804 14.3C713.404 14.3 714.204 14.1001 715.204 13.7001C716.404 13.2001 717.304 12.7 717.904 12.1C718.704 11.3 719.404 10.6001 719.904 9.70007C720.504 8.80007 720.804 7.90005 720.804 7.30005C720.804 6.90005 720.704 6.60002 720.504 6.40002C720.104 5.90002 719.604 5.70007 718.904 5.70007C717.904 5.70007 716.904 6.00007 715.604 6.70007C714.504 7.30007 713.904 7.80007 713.904 8.20007L713.204 7.80005L718.004 1.80005L711.904 4.20007V3.59998L719.004 0.800049L719.204 1.20007L715.104 6.30005C716.604 5.50005 717.904 5.09998 719.004 5.09998C719.904 5.19998 720.504 5.49998 720.904 6.09998Z" fill="white" stroke="white" stroke-miterlimit="10"/>
</svg>
