<svg width="38" height="39" viewBox="0 0 38 39" fill="none" xmlns="http://www.w3.org/2000/svg">
<path d="M37.9045 19.6C37.9045 29.9 29.5044 38.2001 19.1044 38.2001C8.80441 38.2001 0.50441 29.8 0.60441 19.5C0.60441 9.2 9.00446 0.900024 19.4045 0.900024C29.6045 0.900024 37.9045 9.29998 37.9045 19.6ZM24.3045 10.4C22.8045 10.4 21.4044 10.3 20.0044 10.4C18.3044 10.6 17.3044 11.8 17.1044 13.4C17.0044 14 17.0044 14.7 17.0044 15.3C17.0044 15.8 17.0044 16.3 17.0044 16.8C16.6044 16.8 16.3044 16.8 16.0044 16.8C15.7044 16.8 15.4044 16.8 15.0044 16.8C15.0044 17.5 15.0044 18.1001 15.0044 18.7001C15.0044 20.3001 15.0044 20.3 16.6044 20.4C16.7044 20.4 16.9044 20.5 17.1044 20.5C17.1044 23.8 17.1044 27.1 17.1044 30.5C18.5044 30.5 19.9045 30.5 21.3045 30.5C21.3045 27.1 21.3045 23.8 21.3045 20.4C22.3045 20.4 23.2044 20.4 24.1044 20.4C24.2044 19.2 24.3044 18.1 24.5044 16.9C23.4044 16.9 22.4045 16.9 21.3045 16.9C21.3045 16.2 21.3045 15.6 21.3045 15C21.3045 14.1 21.7044 13.7001 22.5044 13.7001C23.1044 13.7001 23.8045 13.7001 24.4045 13.7001C24.3045 12.5001 24.3045 11.4 24.3045 10.4Z" fill="#31A6EB"/>
</svg>
