<svg width="39" height="39" viewBox="0 0 39 39" fill="none" xmlns="http://www.w3.org/2000/svg">
<path d="M38.0044 19.6C38.0044 29.9 29.6045 38.2001 19.2045 38.2001C8.90447 38.2001 0.60437 29.8 0.60437 19.5C0.60437 9.2 9.00442 0.900024 19.4044 0.900024C29.7044 0.900024 38.0044 9.29998 38.0044 19.6ZM28.2045 14.2001C28.1045 14.1001 28.0044 14.1 28.0044 14C27.5044 14.1 27.1044 14.2 26.4044 14.4C26.8044 14 27.0044 13.7 27.1044 13.5C27.3044 13.2 27.4045 12.9 27.7045 12.5C26.9045 12.8 26.3045 13.2001 25.7045 13.2001C25.1045 13.2001 24.6044 12.7 24.0044 12.4C21.8044 11.4 19.0044 13.1 18.9044 15.6C18.9044 16 18.9044 16.4001 18.9044 16.7001C15.7044 16.5001 13.3045 15 11.2045 12.8C10.3045 14.7 10.8045 16.3 12.2045 17.8C11.5045 17.6 11.1045 17.5 10.7045 17.4C10.8045 19.2 11.8044 20.3 13.3044 21.1C12.8044 21.2 12.5044 21.2001 12.1044 21.2001C12.6044 22.8001 14.0044 23.3 15.3044 23.9C13.8044 25.1 12.1045 25.2 10.2045 25.4C10.6045 25.6 10.7044 25.7 10.8044 25.8C17.4044 29.1 24.6045 25.7 26.2045 18.5C26.4045 16.8 26.3045 15.1001 28.2045 14.2001Z" fill="#31A6EB"/>
</svg>
