<svg width="38" height="39" viewBox="0 0 38 39" fill="none" xmlns="http://www.w3.org/2000/svg">
<path d="M37.9044 19.6C37.9044 29.9 29.5045 38.2001 19.2045 38.2001C8.90447 38.2001 0.60437 29.8 0.60437 19.5C0.60437 9.2 9.00444 0.900024 19.3044 0.900024C29.6044 0.900024 37.9044 9.29998 37.9044 19.6ZM9.30444 19.5C9.40444 19.5 9.40439 19.5 9.50439 19.5C9.50439 21.2 9.40439 22.8 9.50439 24.5C9.70439 27.3 11.5044 29.2 14.3044 29.4C17.6044 29.6 20.9045 29.6 24.2045 29.4C26.9045 29.3 28.8044 27.4001 29.0044 24.7001C29.2044 21.4001 29.2044 18.1 29.0044 14.8C28.8044 12 27.0045 10.1 24.2045 9.90002C20.9045 9.70002 17.6044 9.70002 14.3044 9.90002C11.6044 10 9.80439 11.9 9.50439 14.5C9.30439 16.1 9.30444 17.8 9.30444 19.5Z" fill="#31A6EB"/>
<path d="M19.3045 11.5C20.9045 11.5 22.5044 11.4 24.1044 11.5C26.0044 11.6 27.2045 12.8001 27.3045 14.7001C27.4045 17.9001 27.4045 21.1001 27.3045 24.3001C27.2045 26.2001 26.0044 27.4 24.0044 27.5C20.8044 27.6 17.6045 27.6 14.4045 27.5C12.6045 27.4 11.3045 26.2 11.3045 24.4C11.2045 21.2 11.2045 18.0001 11.3045 14.8001C11.4045 12.9001 12.6044 11.7 14.5044 11.5C16.1044 11.4 17.7045 11.5 19.3045 11.5ZM24.4045 19.5C24.4045 16.7 22.0045 14.4 19.3045 14.4C16.5045 14.4 14.1045 16.8 14.2045 19.6C14.2045 22.4 16.6045 24.7001 19.3045 24.7001C22.1045 24.7001 24.4045 22.3 24.4045 19.5ZM25.8045 14.2001C25.8045 13.6001 25.2044 13 24.6044 13C23.9044 13 23.4045 13.6001 23.4045 14.3001C23.4045 14.9001 24.0044 15.5 24.6044 15.4C25.3044 15.4 25.8045 14.8001 25.8045 14.2001Z" fill="#31A6EB"/>
<path d="M22.6044 19.5C22.6044 21.3 21.1045 22.9 19.3045 22.9C17.5045 22.9 15.9045 21.3999 16.0045 19.5999C16.0045 17.7999 17.5045 16.3 19.3045 16.3C21.0045 16.2 22.6044 17.7 22.6044 19.5Z" fill="#31A6EB"/>
</svg>
