<svg width="38" height="39" viewBox="0 0 38 39" fill="none" xmlns="http://www.w3.org/2000/svg">
<path d="M18.9044 38.2001C8.60442 38.2001 0.304443 29.8 0.304443 19.5C0.304443 9.2 8.70439 0.900024 19.0044 0.900024C29.3044 0.900024 37.6044 9.29998 37.6044 19.6C37.6044 29.9 29.2044 38.2001 18.9044 38.2001ZM19.0044 27.1C21.4044 27 23.9044 26.8 26.3044 26.6C27.6044 26.5 28.4044 25.7 28.6044 24.5C29.1044 21.5 29.1045 18.5 28.7045 15.6C28.4045 13.8 27.6044 13.1 25.8044 13C24.0044 12.9 22.1044 12.8 20.3044 12.8C17.6044 12.8 14.9044 12.9 12.1044 13.1C10.4044 13.2 9.60442 13.9 9.40442 15.6C8.90442 18.6 8.90442 21.6 9.40442 24.5C9.60442 25.9 10.4044 26.6001 11.8044 26.7001C14.1044 26.9001 16.5044 27 19.0044 27.1Z" fill="#31A6EB"/>
<path d="M17.2045 23.2001C17.2045 21.1001 17.2045 19.2 17.2045 17.1C18.9045 18.1 20.4044 19.1001 22.1044 20.2001C20.4044 21.2001 18.9045 22.2001 17.2045 23.2001Z" fill="#31A6EB"/>
</svg>
